<svg width="242" height="157" viewBox="0 0 242 157" fill="none" xmlns="http://www.w3.org/2000/svg">
<g filter="url(#filter0_d_6_8490)">
<rect x="28" y="24" width="152" height="57" rx="15" fill="white"/>
<rect x="28.5" y="24.5" width="151" height="56" rx="14.5" stroke="#F4F4F4"/>
</g>
<g clip-path="url(#clip0_6_8490)">
<path d="M62.5 65C69.4036 65 75 59.4036 75 52.5C75 45.5964 69.4036 40 62.5 40C55.5964 40 50 45.5964 50 52.5C50 59.4036 55.5964 65 62.5 65Z" fill="#3C5A9A"/>
<path d="M66.5644 43.8369H63.7954C62.1521 43.8369 60.3244 44.528 60.3244 46.91C60.3324 47.74 60.3244 48.5348 60.3244 49.4294H58.4233V52.4545H60.3832V61.1632H63.9845V52.397H66.3615L66.5766 49.4209H63.9225C63.9225 49.4209 63.9284 48.097 63.9225 47.7126C63.9225 46.7713 64.9019 46.8252 64.9608 46.8252C65.4269 46.8252 66.3332 46.8265 66.5658 46.8252V43.8369H66.5644Z" fill="white"/>
</g>
<path d="M90.639 51.075V54.582H94.762V55.688H90.639V60H89.281V49.969H95.462V51.075H90.639ZM100.248 56.808C99.674 56.8267 99.184 56.8733 98.778 56.948C98.3766 57.018 98.0476 57.1113 97.791 57.228C97.539 57.3447 97.3546 57.4823 97.238 57.641C97.126 57.7997 97.07 57.977 97.07 58.173C97.07 58.3597 97.1003 58.5207 97.161 58.656C97.2216 58.7913 97.3033 58.9033 97.406 58.992C97.5133 59.076 97.637 59.139 97.777 59.181C97.9216 59.2183 98.0756 59.237 98.239 59.237C98.4583 59.237 98.659 59.216 98.841 59.174C99.023 59.1273 99.1933 59.062 99.352 58.978C99.5153 58.894 99.6693 58.7937 99.814 58.677C99.9633 58.5603 100.108 58.4273 100.248 58.278V56.808ZM96.223 53.91C96.615 53.532 97.0373 53.2497 97.49 53.063C97.9426 52.8763 98.4443 52.783 98.995 52.783C99.3916 52.783 99.744 52.8483 100.052 52.979C100.36 53.1097 100.619 53.2917 100.829 53.525C101.039 53.7583 101.198 54.0407 101.305 54.372C101.412 54.7033 101.466 55.0673 101.466 55.464V60H100.913C100.792 60 100.698 59.9813 100.633 59.944C100.568 59.902 100.516 59.8227 100.479 59.706L100.339 59.034C100.152 59.2067 99.9703 59.3607 99.793 59.496C99.6156 59.6267 99.429 59.7387 99.233 59.832C99.037 59.9207 98.827 59.9883 98.603 60.035C98.3836 60.0863 98.1386 60.112 97.868 60.112C97.5926 60.112 97.3336 60.0747 97.091 60C96.8483 59.9207 96.636 59.804 96.454 59.65C96.2766 59.496 96.1343 59.3023 96.027 59.069C95.9243 58.831 95.873 58.551 95.873 58.229C95.873 57.949 95.95 57.6807 96.104 57.424C96.258 57.1627 96.5076 56.9317 96.853 56.731C97.1983 56.5303 97.6486 56.367 98.204 56.241C98.7593 56.1103 99.4406 56.0357 100.248 56.017V55.464C100.248 54.9133 100.129 54.498 99.891 54.218C99.653 53.9333 99.3053 53.791 98.848 53.791C98.54 53.791 98.281 53.8307 98.071 53.91C97.8656 53.9847 97.686 54.071 97.532 54.169C97.3826 54.2623 97.252 54.3487 97.14 54.428C97.0326 54.5027 96.9253 54.54 96.818 54.54C96.734 54.54 96.6616 54.519 96.601 54.477C96.5403 54.4303 96.489 54.3743 96.447 54.309L96.223 53.91ZM108.799 54.169C108.762 54.2203 108.724 54.26 108.687 54.288C108.65 54.316 108.598 54.33 108.533 54.33C108.463 54.33 108.386 54.302 108.302 54.246C108.218 54.1853 108.113 54.12 107.987 54.05C107.866 53.98 107.714 53.917 107.532 53.861C107.355 53.8003 107.135 53.77 106.874 53.77C106.524 53.77 106.216 53.833 105.95 53.959C105.684 54.0803 105.46 54.2577 105.278 54.491C105.101 54.7243 104.965 55.0067 104.872 55.338C104.783 55.6693 104.739 56.0403 104.739 56.451C104.739 56.8803 104.788 57.263 104.886 57.599C104.984 57.9303 105.122 58.2103 105.299 58.439C105.481 58.663 105.698 58.8357 105.95 58.957C106.207 59.0737 106.494 59.132 106.811 59.132C107.114 59.132 107.364 59.097 107.56 59.027C107.756 58.9523 107.917 58.8707 108.043 58.782C108.174 58.6933 108.281 58.614 108.365 58.544C108.454 58.4693 108.54 58.432 108.624 58.432C108.727 58.432 108.806 58.4717 108.862 58.551L109.212 59.006C109.058 59.1973 108.883 59.3607 108.687 59.496C108.491 59.6313 108.279 59.7457 108.05 59.839C107.826 59.9277 107.59 59.993 107.343 60.035C107.096 60.077 106.844 60.098 106.587 60.098C106.144 60.098 105.731 60.0163 105.348 59.853C104.97 59.6897 104.641 59.454 104.361 59.146C104.081 58.8333 103.862 58.4507 103.703 57.998C103.544 57.5453 103.465 57.0297 103.465 56.451C103.465 55.9237 103.537 55.436 103.682 54.988C103.831 54.54 104.046 54.155 104.326 53.833C104.611 53.5063 104.958 53.252 105.369 53.07C105.784 52.888 106.26 52.797 106.797 52.797C107.296 52.797 107.735 52.8787 108.113 53.042C108.496 53.2007 108.834 53.427 109.128 53.721L108.799 54.169ZM115.672 55.681C115.672 55.3917 115.63 55.128 115.546 54.89C115.467 54.6473 115.348 54.4397 115.189 54.267C115.035 54.0897 114.846 53.9543 114.622 53.861C114.398 53.763 114.144 53.714 113.859 53.714C113.262 53.714 112.788 53.889 112.438 54.239C112.093 54.5843 111.878 55.065 111.794 55.681H115.672ZM116.68 59.006C116.526 59.1927 116.342 59.356 116.127 59.496C115.913 59.6313 115.682 59.7433 115.434 59.832C115.192 59.9207 114.94 59.986 114.678 60.028C114.417 60.0747 114.158 60.098 113.901 60.098C113.411 60.098 112.959 60.0163 112.543 59.853C112.133 59.685 111.776 59.4423 111.472 59.125C111.174 58.803 110.94 58.4063 110.772 57.935C110.604 57.4637 110.52 56.9223 110.52 56.311C110.52 55.8163 110.595 55.3543 110.744 54.925C110.898 54.4957 111.118 54.1247 111.402 53.812C111.687 53.4947 112.035 53.2473 112.445 53.07C112.856 52.888 113.318 52.797 113.831 52.797C114.256 52.797 114.648 52.8693 115.007 53.014C115.371 53.154 115.684 53.3593 115.945 53.63C116.211 53.896 116.419 54.2273 116.568 54.624C116.718 55.016 116.792 55.464 116.792 55.968C116.792 56.164 116.771 56.2947 116.729 56.36C116.687 56.4253 116.608 56.458 116.491 56.458H111.752C111.766 56.906 111.827 57.2957 111.934 57.627C112.046 57.9583 112.2 58.236 112.396 58.46C112.592 58.6793 112.826 58.845 113.096 58.957C113.367 59.0643 113.67 59.118 114.006 59.118C114.319 59.118 114.587 59.083 114.811 59.013C115.04 58.9383 115.236 58.859 115.399 58.775C115.563 58.691 115.698 58.614 115.805 58.544C115.917 58.4693 116.013 58.432 116.092 58.432C116.195 58.432 116.274 58.4717 116.33 58.551L116.68 59.006ZM120.076 58.292C120.305 58.6 120.554 58.817 120.825 58.943C121.1 59.069 121.401 59.132 121.728 59.132C122.395 59.132 122.906 58.8963 123.261 58.425C123.616 57.9537 123.793 57.2513 123.793 56.318C123.793 55.45 123.634 54.813 123.317 54.407C123.004 53.9963 122.556 53.791 121.973 53.791C121.567 53.791 121.212 53.8843 120.909 54.071C120.61 54.2577 120.333 54.5213 120.076 54.862V58.292ZM120.076 53.931C120.375 53.5857 120.711 53.3103 121.084 53.105C121.462 52.8997 121.896 52.797 122.386 52.797C122.801 52.797 123.175 52.8763 123.506 53.035C123.842 53.1937 124.127 53.4247 124.36 53.728C124.593 54.0267 124.771 54.3907 124.892 54.82C125.018 55.2493 125.081 55.7323 125.081 56.269C125.081 56.843 125.011 57.3657 124.871 57.837C124.731 58.3083 124.528 58.712 124.262 59.048C124.001 59.3793 123.681 59.6383 123.303 59.825C122.925 60.007 122.5 60.098 122.029 60.098C121.562 60.098 121.168 60.0117 120.846 59.839C120.529 59.6617 120.251 59.412 120.013 59.09L119.95 59.734C119.913 59.9113 119.805 60 119.628 60H118.823V49.689H120.076V53.931ZM130.146 52.797C130.664 52.797 131.131 52.8833 131.546 53.056C131.961 53.2287 132.316 53.4737 132.61 53.791C132.904 54.1083 133.128 54.4933 133.282 54.946C133.441 55.394 133.52 55.8957 133.52 56.451C133.52 57.011 133.441 57.515 133.282 57.963C133.128 58.411 132.904 58.7937 132.61 59.111C132.316 59.4283 131.961 59.6733 131.546 59.846C131.131 60.014 130.664 60.098 130.146 60.098C129.623 60.098 129.152 60.014 128.732 59.846C128.317 59.6733 127.962 59.4283 127.668 59.111C127.374 58.7937 127.148 58.411 126.989 57.963C126.835 57.515 126.758 57.011 126.758 56.451C126.758 55.8957 126.835 55.394 126.989 54.946C127.148 54.4933 127.374 54.1083 127.668 53.791C127.962 53.4737 128.317 53.2287 128.732 53.056C129.152 52.8833 129.623 52.797 130.146 52.797ZM130.146 59.125C130.846 59.125 131.369 58.8917 131.714 58.425C132.059 57.9537 132.232 57.298 132.232 56.458C132.232 55.6133 132.059 54.9553 131.714 54.484C131.369 54.0127 130.846 53.777 130.146 53.777C129.791 53.777 129.481 53.8377 129.215 53.959C128.954 54.0803 128.734 54.2553 128.557 54.484C128.384 54.7127 128.254 54.995 128.165 55.331C128.081 55.6623 128.039 56.038 128.039 56.458C128.039 57.298 128.212 57.9537 128.557 58.425C128.907 58.8917 129.437 59.125 130.146 59.125ZM138.589 52.797C139.107 52.797 139.574 52.8833 139.989 53.056C140.405 53.2287 140.759 53.4737 141.053 53.791C141.347 54.1083 141.571 54.4933 141.725 54.946C141.884 55.394 141.963 55.8957 141.963 56.451C141.963 57.011 141.884 57.515 141.725 57.963C141.571 58.411 141.347 58.7937 141.053 59.111C140.759 59.4283 140.405 59.6733 139.989 59.846C139.574 60.014 139.107 60.098 138.589 60.098C138.067 60.098 137.595 60.014 137.175 59.846C136.76 59.6733 136.405 59.4283 136.111 59.111C135.817 58.7937 135.591 58.411 135.432 57.963C135.278 57.515 135.201 57.011 135.201 56.451C135.201 55.8957 135.278 55.394 135.432 54.946C135.591 54.4933 135.817 54.1083 136.111 53.791C136.405 53.4737 136.76 53.2287 137.175 53.056C137.595 52.8833 138.067 52.797 138.589 52.797ZM138.589 59.125C139.289 59.125 139.812 58.8917 140.157 58.425C140.503 57.9537 140.675 57.298 140.675 56.458C140.675 55.6133 140.503 54.9553 140.157 54.484C139.812 54.0127 139.289 53.777 138.589 53.777C138.235 53.777 137.924 53.8377 137.658 53.959C137.397 54.0803 137.178 54.2553 137 54.484C136.828 54.7127 136.697 54.995 136.608 55.331C136.524 55.6623 136.482 56.038 136.482 56.458C136.482 57.298 136.655 57.9537 137 58.425C137.35 58.8917 137.88 59.125 138.589 59.125ZM145.297 49.689V55.758H145.619C145.712 55.758 145.789 55.7463 145.85 55.723C145.915 55.695 145.983 55.6413 146.053 55.562L148.293 53.161C148.358 53.0817 148.426 53.021 148.496 52.979C148.57 52.9323 148.668 52.909 148.79 52.909H149.917L147.306 55.688C147.18 55.8467 147.044 55.9703 146.9 56.059C146.984 56.115 147.058 56.1803 147.124 56.255C147.194 56.325 147.259 56.4067 147.32 56.5L150.092 60H148.979C148.871 60 148.778 59.9837 148.699 59.951C148.624 59.9137 148.559 59.8483 148.503 59.755L146.172 56.85C146.102 56.752 146.032 56.689 145.962 56.661C145.896 56.6283 145.794 56.612 145.654 56.612H145.297V60H144.044V49.689H145.297Z" fill="#09051C"/>
<defs>
<filter id="filter0_d_6_8490" x="-10" y="0" width="252" height="157" filterUnits="userSpaceOnUse" color-interpolation-filters="sRGB">
<feFlood flood-opacity="0" result="BackgroundImageFix"/>
<feColorMatrix in="SourceAlpha" type="matrix" values="0 0 0 0 0 0 0 0 0 0 0 0 0 0 0 0 0 0 127 0" result="hardAlpha"/>
<feOffset dx="12" dy="26"/>
<feGaussianBlur stdDeviation="25"/>
<feColorMatrix type="matrix" values="0 0 0 0 0.352941 0 0 0 0 0.423529 0 0 0 0 0.917647 0 0 0 0.07 0"/>
<feBlend mode="normal" in2="BackgroundImageFix" result="effect1_dropShadow_6_8490"/>
<feBlend mode="normal" in="SourceGraphic" in2="effect1_dropShadow_6_8490" result="shape"/>
</filter>
<clipPath id="clip0_6_8490">
<rect width="25" height="25" fill="white" transform="translate(50 40)"/>
</clipPath>
</defs>
</svg>
