<svg width="360" height="295" viewBox="0 0 360 295" fill="none" xmlns="http://www.w3.org/2000/svg">
<g filter="url(#filter0_d_6_8467)">
<rect x="29" y="24" width="325" height="57" rx="15" fill="white"/>
<rect x="29.5" y="24.5" width="324" height="56" rx="14.5" stroke="#F4F4F4"/>
</g>
<path d="M59.0001 56C55.83 56 53.0109 57.5306 51.2161 59.906C50.8298 60.4172 50.6367 60.6728 50.643 61.0183C50.6479 61.2852 50.8155 61.6219 51.0255 61.7867C51.2973 62 51.674 62 52.4273 62H65.5729C66.3262 62 66.7029 62 66.9747 61.7867C67.1847 61.6219 67.3523 61.2852 67.3572 61.0183C67.3635 60.6728 67.1704 60.4172 66.7841 59.906C64.9893 57.5306 62.1702 56 59.0001 56Z" stroke="black" stroke-width="2" stroke-linecap="round" stroke-linejoin="round"/>
<path d="M59.0001 53C61.4854 53 63.5001 50.9853 63.5001 48.5C63.5001 46.0147 61.4854 44 59.0001 44C56.5148 44 54.5001 46.0147 54.5001 48.5C54.5001 50.9853 56.5148 53 59.0001 53Z" stroke="black" stroke-width="2" stroke-linecap="round" stroke-linejoin="round"/>
<path opacity="0.3" d="M100.408 51.969V62H99.729C99.6217 62 99.5307 61.9813 99.456 61.944C99.386 61.9067 99.316 61.8437 99.246 61.755L93.443 54.195C93.4523 54.3117 93.4593 54.426 93.464 54.538C93.4687 54.65 93.471 54.755 93.471 54.853V62H92.281V51.969H92.981C93.0417 51.969 93.093 51.9737 93.135 51.983C93.177 51.9877 93.2143 51.9993 93.247 52.018C93.2797 52.032 93.3123 52.0553 93.345 52.088C93.3777 52.116 93.4127 52.1533 93.45 52.2L99.253 59.753C99.2437 59.6317 99.2343 59.515 99.225 59.403C99.2203 59.2863 99.218 59.1767 99.218 59.074V51.969H100.408ZM106.816 58.808C106.242 58.8267 105.752 58.8733 105.346 58.948C104.945 59.018 104.616 59.1113 104.359 59.228C104.107 59.3447 103.923 59.4823 103.806 59.641C103.694 59.7997 103.638 59.977 103.638 60.173C103.638 60.3597 103.669 60.5207 103.729 60.656C103.79 60.7913 103.872 60.9033 103.974 60.992C104.082 61.076 104.205 61.139 104.345 61.181C104.49 61.2183 104.644 61.237 104.807 61.237C105.027 61.237 105.227 61.216 105.409 61.174C105.591 61.1273 105.762 61.062 105.92 60.978C106.084 60.894 106.238 60.7937 106.382 60.677C106.532 60.5603 106.676 60.4273 106.816 60.278V58.808ZM102.791 55.91C103.183 55.532 103.606 55.2497 104.058 55.063C104.511 54.8763 105.013 54.783 105.563 54.783C105.96 54.783 106.312 54.8483 106.62 54.979C106.928 55.1097 107.187 55.2917 107.397 55.525C107.607 55.7583 107.766 56.0407 107.873 56.372C107.981 56.7033 108.034 57.0673 108.034 57.464V62H107.481C107.36 62 107.267 61.9813 107.201 61.944C107.136 61.902 107.085 61.8227 107.047 61.706L106.907 61.034C106.721 61.2067 106.539 61.3607 106.361 61.496C106.184 61.6267 105.997 61.7387 105.801 61.832C105.605 61.9207 105.395 61.9883 105.171 62.035C104.952 62.0863 104.707 62.112 104.436 62.112C104.161 62.112 103.902 62.0747 103.659 62C103.417 61.9207 103.204 61.804 103.022 61.65C102.845 61.496 102.703 61.3023 102.595 61.069C102.493 60.831 102.441 60.551 102.441 60.229C102.441 59.949 102.518 59.6807 102.672 59.424C102.826 59.1627 103.076 58.9317 103.421 58.731C103.767 58.5303 104.217 58.367 104.772 58.241C105.328 58.1103 106.009 58.0357 106.816 58.017V57.464C106.816 56.9133 106.697 56.498 106.459 56.218C106.221 55.9333 105.874 55.791 105.416 55.791C105.108 55.791 104.849 55.8307 104.639 55.91C104.434 55.9847 104.254 56.071 104.1 56.169C103.951 56.2623 103.82 56.3487 103.708 56.428C103.601 56.5027 103.494 56.54 103.386 56.54C103.302 56.54 103.23 56.519 103.169 56.477C103.109 56.4303 103.057 56.3743 103.015 56.309L102.791 55.91ZM110.432 62V54.909H111.181C111.359 54.909 111.468 54.9953 111.51 55.168L111.601 55.896C111.863 55.574 112.157 55.3103 112.483 55.105C112.81 54.8997 113.188 54.797 113.617 54.797C114.093 54.797 114.478 54.93 114.772 55.196C115.071 55.462 115.286 55.8213 115.416 56.274C115.519 56.0173 115.65 55.7957 115.808 55.609C115.972 55.4223 116.154 55.2683 116.354 55.147C116.555 55.0257 116.767 54.937 116.991 54.881C117.22 54.825 117.451 54.797 117.684 54.797C118.058 54.797 118.389 54.8577 118.678 54.979C118.972 55.0957 119.22 55.2683 119.42 55.497C119.626 55.7257 119.782 56.008 119.889 56.344C119.997 56.6753 120.05 57.0557 120.05 57.485V62H118.797V57.485C118.797 56.9297 118.676 56.5097 118.433 56.225C118.191 55.9357 117.841 55.791 117.383 55.791C117.178 55.791 116.982 55.8283 116.795 55.903C116.613 55.973 116.452 56.078 116.312 56.218C116.172 56.358 116.06 56.5353 115.976 56.75C115.897 56.96 115.857 57.205 115.857 57.485V62H114.604V57.485C114.604 56.9157 114.49 56.491 114.261 56.211C114.033 55.931 113.699 55.791 113.26 55.791C112.952 55.791 112.668 55.875 112.406 56.043C112.145 56.2063 111.905 56.4303 111.685 56.715V62H110.432ZM127.19 57.681C127.19 57.3917 127.148 57.128 127.064 56.89C126.985 56.6473 126.866 56.4397 126.707 56.267C126.553 56.0897 126.364 55.9543 126.14 55.861C125.916 55.763 125.662 55.714 125.377 55.714C124.78 55.714 124.306 55.889 123.956 56.239C123.611 56.5843 123.396 57.065 123.312 57.681H127.19ZM128.198 61.006C128.044 61.1927 127.86 61.356 127.645 61.496C127.43 61.6313 127.199 61.7433 126.952 61.832C126.709 61.9207 126.457 61.986 126.196 62.028C125.935 62.0747 125.676 62.098 125.419 62.098C124.929 62.098 124.476 62.0163 124.061 61.853C123.65 61.685 123.293 61.4423 122.99 61.125C122.691 60.803 122.458 60.4063 122.29 59.935C122.122 59.4637 122.038 58.9223 122.038 58.311C122.038 57.8163 122.113 57.3543 122.262 56.925C122.416 56.4957 122.635 56.1247 122.92 55.812C123.205 55.4947 123.552 55.2473 123.963 55.07C124.374 54.888 124.836 54.797 125.349 54.797C125.774 54.797 126.166 54.8693 126.525 55.014C126.889 55.154 127.202 55.3593 127.463 55.63C127.729 55.896 127.937 56.2273 128.086 56.624C128.235 57.016 128.31 57.464 128.31 57.968C128.31 58.164 128.289 58.2947 128.247 58.36C128.205 58.4253 128.126 58.458 128.009 58.458H123.27C123.284 58.906 123.345 59.2957 123.452 59.627C123.564 59.9583 123.718 60.236 123.914 60.46C124.11 60.6793 124.343 60.845 124.614 60.957C124.885 61.0643 125.188 61.118 125.524 61.118C125.837 61.118 126.105 61.083 126.329 61.013C126.558 60.9383 126.754 60.859 126.917 60.775C127.08 60.691 127.216 60.614 127.323 60.544C127.435 60.4693 127.531 60.432 127.61 60.432C127.713 60.432 127.792 60.4717 127.848 60.551L128.198 61.006Z" fill="#3B3B3B"/>
<g filter="url(#filter1_d_6_8467)">
<rect x="27" y="93" width="325" height="57" rx="15" fill="white"/>
<rect x="27.5" y="93.5" width="324" height="56" rx="14.5" stroke="#F4F4F4"/>
</g>
<path opacity="0.3" d="M94.469 127.894L94.462 129H88.281V118.969H94.462V120.075H89.639V123.407H93.545V124.471H89.639V127.894H94.469ZM96.3757 129V121.909H97.1247C97.302 121.909 97.4117 121.995 97.4537 122.168L97.5447 122.896C97.806 122.574 98.1 122.31 98.4267 122.105C98.7533 121.9 99.1313 121.797 99.5607 121.797C100.037 121.797 100.422 121.93 100.716 122.196C101.014 122.462 101.229 122.821 101.36 123.274C101.462 123.017 101.593 122.796 101.752 122.609C101.915 122.422 102.097 122.268 102.298 122.147C102.498 122.026 102.711 121.937 102.935 121.881C103.163 121.825 103.394 121.797 103.628 121.797C104.001 121.797 104.332 121.858 104.622 121.979C104.916 122.096 105.163 122.268 105.364 122.497C105.569 122.726 105.725 123.008 105.833 123.344C105.94 123.675 105.994 124.056 105.994 124.485V129H104.741V124.485C104.741 123.93 104.619 123.51 104.377 123.225C104.134 122.936 103.784 122.791 103.327 122.791C103.121 122.791 102.925 122.828 102.739 122.903C102.557 122.973 102.396 123.078 102.256 123.218C102.116 123.358 102.004 123.535 101.92 123.75C101.84 123.96 101.801 124.205 101.801 124.485V129H100.548V124.485C100.548 123.916 100.433 123.491 100.205 123.211C99.976 122.931 99.6423 122.791 99.2037 122.791C98.8957 122.791 98.611 122.875 98.3497 123.043C98.0883 123.206 97.848 123.43 97.6287 123.715V129H96.3757ZM112.23 125.808C111.656 125.827 111.166 125.873 110.76 125.948C110.359 126.018 110.03 126.111 109.773 126.228C109.521 126.345 109.337 126.482 109.22 126.641C109.108 126.8 109.052 126.977 109.052 127.173C109.052 127.36 109.083 127.521 109.143 127.656C109.204 127.791 109.286 127.903 109.388 127.992C109.496 128.076 109.619 128.139 109.759 128.181C109.904 128.218 110.058 128.237 110.221 128.237C110.441 128.237 110.641 128.216 110.823 128.174C111.005 128.127 111.176 128.062 111.334 127.978C111.498 127.894 111.652 127.794 111.796 127.677C111.946 127.56 112.09 127.427 112.23 127.278V125.808ZM108.205 122.91C108.597 122.532 109.02 122.25 109.472 122.063C109.925 121.876 110.427 121.783 110.977 121.783C111.374 121.783 111.726 121.848 112.034 121.979C112.342 122.11 112.601 122.292 112.811 122.525C113.021 122.758 113.18 123.041 113.287 123.372C113.395 123.703 113.448 124.067 113.448 124.464V129H112.895C112.774 129 112.681 128.981 112.615 128.944C112.55 128.902 112.499 128.823 112.461 128.706L112.321 128.034C112.135 128.207 111.953 128.361 111.775 128.496C111.598 128.627 111.411 128.739 111.215 128.832C111.019 128.921 110.809 128.988 110.585 129.035C110.366 129.086 110.121 129.112 109.85 129.112C109.575 129.112 109.316 129.075 109.073 129C108.831 128.921 108.618 128.804 108.436 128.65C108.259 128.496 108.117 128.302 108.009 128.069C107.907 127.831 107.855 127.551 107.855 127.229C107.855 126.949 107.932 126.681 108.086 126.424C108.24 126.163 108.49 125.932 108.835 125.731C109.181 125.53 109.631 125.367 110.186 125.241C110.742 125.11 111.423 125.036 112.23 125.017V124.464C112.23 123.913 112.111 123.498 111.873 123.218C111.635 122.933 111.288 122.791 110.83 122.791C110.522 122.791 110.263 122.831 110.053 122.91C109.848 122.985 109.668 123.071 109.514 123.169C109.365 123.262 109.234 123.349 109.122 123.428C109.015 123.503 108.908 123.54 108.8 123.54C108.716 123.54 108.644 123.519 108.583 123.477C108.523 123.43 108.471 123.374 108.429 123.309L108.205 122.91ZM117.162 121.909V129H115.916V121.909H117.162ZM117.428 119.683C117.428 119.804 117.403 119.919 117.351 120.026C117.305 120.129 117.239 120.222 117.155 120.306C117.076 120.385 116.98 120.448 116.868 120.495C116.761 120.542 116.647 120.565 116.525 120.565C116.404 120.565 116.29 120.542 116.182 120.495C116.08 120.448 115.989 120.385 115.909 120.306C115.83 120.222 115.767 120.129 115.72 120.026C115.674 119.919 115.65 119.804 115.65 119.683C115.65 119.562 115.674 119.447 115.72 119.34C115.767 119.228 115.83 119.132 115.909 119.053C115.989 118.969 116.08 118.904 116.182 118.857C116.29 118.81 116.404 118.787 116.525 118.787C116.647 118.787 116.761 118.81 116.868 118.857C116.98 118.904 117.076 118.969 117.155 119.053C117.239 119.132 117.305 119.228 117.351 119.34C117.403 119.447 117.428 119.562 117.428 119.683ZM120.998 118.689V129H119.752V118.689H120.998ZM130.589 121.797C131.107 121.797 131.574 121.883 131.989 122.056C132.405 122.229 132.759 122.474 133.053 122.791C133.347 123.108 133.571 123.493 133.725 123.946C133.884 124.394 133.963 124.896 133.963 125.451C133.963 126.011 133.884 126.515 133.725 126.963C133.571 127.411 133.347 127.794 133.053 128.111C132.759 128.428 132.405 128.673 131.989 128.846C131.574 129.014 131.107 129.098 130.589 129.098C130.067 129.098 129.595 129.014 129.175 128.846C128.76 128.673 128.405 128.428 128.111 128.111C127.817 127.794 127.591 127.411 127.432 126.963C127.278 126.515 127.201 126.011 127.201 125.451C127.201 124.896 127.278 124.394 127.432 123.946C127.591 123.493 127.817 123.108 128.111 122.791C128.405 122.474 128.76 122.229 129.175 122.056C129.595 121.883 130.067 121.797 130.589 121.797ZM130.589 128.125C131.289 128.125 131.812 127.892 132.157 127.425C132.503 126.954 132.675 126.298 132.675 125.458C132.675 124.613 132.503 123.955 132.157 123.484C131.812 123.013 131.289 122.777 130.589 122.777C130.235 122.777 129.924 122.838 129.658 122.959C129.397 123.08 129.178 123.255 129 123.484C128.828 123.713 128.697 123.995 128.608 124.331C128.524 124.662 128.482 125.038 128.482 125.458C128.482 126.298 128.655 126.954 129 127.425C129.35 127.892 129.88 128.125 130.589 128.125ZM137.227 123.33C137.451 122.845 137.726 122.467 138.053 122.196C138.379 121.921 138.778 121.783 139.25 121.783C139.399 121.783 139.541 121.799 139.677 121.832C139.817 121.865 139.94 121.916 140.048 121.986L139.957 122.917C139.929 123.034 139.859 123.092 139.747 123.092C139.681 123.092 139.586 123.078 139.46 123.05C139.334 123.022 139.191 123.008 139.033 123.008C138.809 123.008 138.608 123.041 138.431 123.106C138.258 123.171 138.102 123.269 137.962 123.4C137.826 123.526 137.703 123.685 137.591 123.876C137.483 124.063 137.385 124.277 137.297 124.52V129H136.044V121.909H136.758C136.893 121.909 136.986 121.935 137.038 121.986C137.089 122.037 137.124 122.126 137.143 122.252L137.227 123.33ZM148.68 124.17C149.067 124.17 149.408 124.119 149.702 124.016C150 123.913 150.25 123.771 150.451 123.589C150.656 123.402 150.81 123.181 150.913 122.924C151.015 122.667 151.067 122.385 151.067 122.077C151.067 121.438 150.868 120.938 150.472 120.579C150.08 120.22 149.482 120.04 148.68 120.04H147.07V124.17H148.68ZM148.68 118.969C149.314 118.969 149.865 119.044 150.332 119.193C150.803 119.338 151.193 119.545 151.501 119.816C151.809 120.087 152.037 120.413 152.186 120.796C152.341 121.179 152.418 121.606 152.418 122.077C152.418 122.544 152.336 122.971 152.173 123.358C152.009 123.745 151.769 124.079 151.452 124.359C151.139 124.639 150.749 124.858 150.283 125.017C149.821 125.171 149.286 125.248 148.68 125.248H147.07V129H145.719V118.969H148.68ZM155.545 122.854C155.848 122.532 156.184 122.275 156.553 122.084C156.921 121.893 157.346 121.797 157.827 121.797C158.214 121.797 158.555 121.862 158.849 121.993C159.147 122.119 159.395 122.301 159.591 122.539C159.791 122.772 159.943 123.055 160.046 123.386C160.148 123.717 160.2 124.084 160.2 124.485V129H158.947V124.485C158.947 123.948 158.823 123.533 158.576 123.239C158.333 122.94 157.962 122.791 157.463 122.791C157.094 122.791 156.749 122.88 156.427 123.057C156.109 123.234 155.815 123.475 155.545 123.778V129H154.292V118.689H155.545V122.854ZM165.587 121.797C166.105 121.797 166.572 121.883 166.987 122.056C167.403 122.229 167.757 122.474 168.051 122.791C168.345 123.108 168.569 123.493 168.723 123.946C168.882 124.394 168.961 124.896 168.961 125.451C168.961 126.011 168.882 126.515 168.723 126.963C168.569 127.411 168.345 127.794 168.051 128.111C167.757 128.428 167.403 128.673 166.987 128.846C166.572 129.014 166.105 129.098 165.587 129.098C165.065 129.098 164.593 129.014 164.173 128.846C163.758 128.673 163.403 128.428 163.109 128.111C162.815 127.794 162.589 127.411 162.43 126.963C162.276 126.515 162.199 126.011 162.199 125.451C162.199 124.896 162.276 124.394 162.43 123.946C162.589 123.493 162.815 123.108 163.109 122.791C163.403 122.474 163.758 122.229 164.173 122.056C164.593 121.883 165.065 121.797 165.587 121.797ZM165.587 128.125C166.287 128.125 166.81 127.892 167.155 127.425C167.501 126.954 167.673 126.298 167.673 125.458C167.673 124.613 167.501 123.955 167.155 123.484C166.81 123.013 166.287 122.777 165.587 122.777C165.233 122.777 164.922 122.838 164.656 122.959C164.395 123.08 164.176 123.255 163.998 123.484C163.826 123.713 163.695 123.995 163.606 124.331C163.522 124.662 163.48 125.038 163.48 125.458C163.48 126.298 163.653 126.954 163.998 127.425C164.348 127.892 164.878 128.125 165.587 128.125ZM172.218 122.938C172.372 122.765 172.535 122.609 172.708 122.469C172.88 122.329 173.062 122.21 173.254 122.112C173.45 122.009 173.655 121.932 173.87 121.881C174.089 121.825 174.325 121.797 174.577 121.797C174.964 121.797 175.305 121.862 175.599 121.993C175.897 122.119 176.145 122.301 176.341 122.539C176.541 122.772 176.693 123.055 176.796 123.386C176.898 123.717 176.95 124.084 176.95 124.485V129H175.697V124.485C175.697 123.948 175.573 123.533 175.326 123.239C175.083 122.94 174.712 122.791 174.213 122.791C173.844 122.791 173.499 122.88 173.177 123.057C172.859 123.234 172.565 123.475 172.295 123.778V129H171.042V121.909H171.791C171.968 121.909 172.078 121.995 172.12 122.168L172.218 122.938ZM184.094 124.681C184.094 124.392 184.052 124.128 183.968 123.89C183.889 123.647 183.77 123.44 183.611 123.267C183.457 123.09 183.268 122.954 183.044 122.861C182.82 122.763 182.566 122.714 182.281 122.714C181.684 122.714 181.21 122.889 180.86 123.239C180.515 123.584 180.3 124.065 180.216 124.681H184.094ZM185.102 128.006C184.948 128.193 184.764 128.356 184.549 128.496C184.335 128.631 184.104 128.743 183.856 128.832C183.614 128.921 183.362 128.986 183.1 129.028C182.839 129.075 182.58 129.098 182.323 129.098C181.833 129.098 181.381 129.016 180.965 128.853C180.555 128.685 180.198 128.442 179.894 128.125C179.596 127.803 179.362 127.406 179.194 126.935C179.026 126.464 178.942 125.922 178.942 125.311C178.942 124.816 179.017 124.354 179.166 123.925C179.32 123.496 179.54 123.125 179.824 122.812C180.109 122.495 180.457 122.247 180.867 122.07C181.278 121.888 181.74 121.797 182.253 121.797C182.678 121.797 183.07 121.869 183.429 122.014C183.793 122.154 184.106 122.359 184.367 122.63C184.633 122.896 184.841 123.227 184.99 123.624C185.14 124.016 185.214 124.464 185.214 124.968C185.214 125.164 185.193 125.295 185.151 125.36C185.109 125.425 185.03 125.458 184.913 125.458H180.174C180.188 125.906 180.249 126.296 180.356 126.627C180.468 126.958 180.622 127.236 180.818 127.46C181.014 127.679 181.248 127.845 181.518 127.957C181.789 128.064 182.092 128.118 182.428 128.118C182.741 128.118 183.009 128.083 183.233 128.013C183.462 127.938 183.658 127.859 183.821 127.775C183.985 127.691 184.12 127.614 184.227 127.544C184.339 127.469 184.435 127.432 184.514 127.432C184.617 127.432 184.696 127.472 184.752 127.551L185.102 128.006ZM199.748 118.969V129H199.069C198.962 129 198.871 128.981 198.796 128.944C198.726 128.907 198.656 128.844 198.586 128.755L192.783 121.195C192.792 121.312 192.799 121.426 192.804 121.538C192.809 121.65 192.811 121.755 192.811 121.853V129H191.621V118.969H192.321C192.382 118.969 192.433 118.974 192.475 118.983C192.517 118.988 192.554 118.999 192.587 119.018C192.62 119.032 192.652 119.055 192.685 119.088C192.718 119.116 192.753 119.153 192.79 119.2L198.593 126.753C198.584 126.632 198.574 126.515 198.565 126.403C198.56 126.286 198.558 126.177 198.558 126.074V118.969H199.748ZM208.226 121.909V129H207.484C207.307 129 207.195 128.914 207.148 128.741L207.05 127.978C206.742 128.319 206.397 128.594 206.014 128.804C205.632 129.009 205.193 129.112 204.698 129.112C204.311 129.112 203.968 129.049 203.669 128.923C203.375 128.792 203.128 128.61 202.927 128.377C202.727 128.144 202.575 127.861 202.472 127.53C202.374 127.199 202.325 126.832 202.325 126.431V121.909H203.571V126.431C203.571 126.968 203.693 127.383 203.935 127.677C204.183 127.971 204.558 128.118 205.062 128.118C205.431 128.118 205.774 128.032 206.091 127.859C206.413 127.682 206.71 127.439 206.98 127.131V121.909H208.226ZM210.702 129V121.909H211.451C211.628 121.909 211.738 121.995 211.78 122.168L211.871 122.896C212.132 122.574 212.426 122.31 212.753 122.105C213.08 121.9 213.458 121.797 213.887 121.797C214.363 121.797 214.748 121.93 215.042 122.196C215.341 122.462 215.555 122.821 215.686 123.274C215.789 123.017 215.919 122.796 216.078 122.609C216.241 122.422 216.423 122.268 216.624 122.147C216.825 122.026 217.037 121.937 217.261 121.881C217.49 121.825 217.721 121.797 217.954 121.797C218.327 121.797 218.659 121.858 218.948 121.979C219.242 122.096 219.489 122.268 219.69 122.497C219.895 122.726 220.052 123.008 220.159 123.344C220.266 123.675 220.32 124.056 220.32 124.485V129H219.067V124.485C219.067 123.93 218.946 123.51 218.703 123.225C218.46 122.936 218.11 122.791 217.653 122.791C217.448 122.791 217.252 122.828 217.065 122.903C216.883 122.973 216.722 123.078 216.582 123.218C216.442 123.358 216.33 123.535 216.246 123.75C216.167 123.96 216.127 124.205 216.127 124.485V129H214.874V124.485C214.874 123.916 214.76 123.491 214.531 123.211C214.302 122.931 213.969 122.791 213.53 122.791C213.222 122.791 212.937 122.875 212.676 123.043C212.415 123.206 212.174 123.43 211.955 123.715V129H210.702ZM223.967 127.292C224.195 127.6 224.445 127.817 224.716 127.943C224.991 128.069 225.292 128.132 225.619 128.132C226.286 128.132 226.797 127.896 227.152 127.425C227.506 126.954 227.684 126.251 227.684 125.318C227.684 124.45 227.525 123.813 227.208 123.407C226.895 122.996 226.447 122.791 225.864 122.791C225.458 122.791 225.103 122.884 224.8 123.071C224.501 123.258 224.223 123.521 223.967 123.862V127.292ZM223.967 122.931C224.265 122.586 224.601 122.31 224.975 122.105C225.353 121.9 225.787 121.797 226.277 121.797C226.692 121.797 227.065 121.876 227.397 122.035C227.733 122.194 228.017 122.425 228.251 122.728C228.484 123.027 228.661 123.391 228.783 123.82C228.909 124.249 228.972 124.732 228.972 125.269C228.972 125.843 228.902 126.366 228.762 126.837C228.622 127.308 228.419 127.712 228.153 128.048C227.891 128.379 227.572 128.638 227.194 128.825C226.816 129.007 226.391 129.098 225.92 129.098C225.453 129.098 225.059 129.012 224.737 128.839C224.419 128.662 224.142 128.412 223.904 128.09L223.841 128.734C223.803 128.911 223.696 129 223.519 129H222.714V118.689H223.967V122.931ZM235.794 124.681C235.794 124.392 235.752 124.128 235.668 123.89C235.588 123.647 235.469 123.44 235.311 123.267C235.157 123.09 234.968 122.954 234.744 122.861C234.52 122.763 234.265 122.714 233.981 122.714C233.383 122.714 232.91 122.889 232.56 123.239C232.214 123.584 232 124.065 231.916 124.681H235.794ZM236.802 128.006C236.648 128.193 236.463 128.356 236.249 128.496C236.034 128.631 235.803 128.743 235.556 128.832C235.313 128.921 235.061 128.986 234.8 129.028C234.538 129.075 234.279 129.098 234.023 129.098C233.533 129.098 233.08 129.016 232.665 128.853C232.254 128.685 231.897 128.442 231.594 128.125C231.295 127.803 231.062 127.406 230.894 126.935C230.726 126.464 230.642 125.922 230.642 125.311C230.642 124.816 230.716 124.354 230.866 123.925C231.02 123.496 231.239 123.125 231.524 122.812C231.808 122.495 232.156 122.247 232.567 122.07C232.977 121.888 233.439 121.797 233.953 121.797C234.377 121.797 234.769 121.869 235.129 122.014C235.493 122.154 235.805 122.359 236.067 122.63C236.333 122.896 236.54 123.227 236.69 123.624C236.839 124.016 236.914 124.464 236.914 124.968C236.914 125.164 236.893 125.295 236.851 125.36C236.809 125.425 236.729 125.458 236.613 125.458H231.874C231.888 125.906 231.948 126.296 232.056 126.627C232.168 126.958 232.322 127.236 232.518 127.46C232.714 127.679 232.947 127.845 233.218 127.957C233.488 128.064 233.792 128.118 234.128 128.118C234.44 128.118 234.709 128.083 234.933 128.013C235.161 127.938 235.357 127.859 235.521 127.775C235.684 127.691 235.819 127.614 235.927 127.544C236.039 127.469 236.134 127.432 236.214 127.432C236.316 127.432 236.396 127.472 236.452 127.551L236.802 128.006ZM240.127 123.33C240.351 122.845 240.626 122.467 240.953 122.196C241.28 121.921 241.679 121.783 242.15 121.783C242.299 121.783 242.442 121.799 242.577 121.832C242.717 121.865 242.841 121.916 242.948 121.986L242.857 122.917C242.829 123.034 242.759 123.092 242.647 123.092C242.582 123.092 242.486 123.078 242.36 123.05C242.234 123.022 242.092 123.008 241.933 123.008C241.709 123.008 241.508 123.041 241.331 123.106C241.158 123.171 241.002 123.269 240.862 123.4C240.727 123.526 240.603 123.685 240.491 123.876C240.384 124.063 240.286 124.277 240.197 124.52V129H238.944V121.909H239.658C239.793 121.909 239.887 121.935 239.938 121.986C239.989 122.037 240.024 122.126 240.043 122.252L240.127 123.33Z" fill="#3B3B3B"/>
<path d="M68.5 128L61.8571 122M56.1429 122L49.5 128M49 117L57.1649 122.715C57.8261 123.178 58.1567 123.41 58.5163 123.499C58.8339 123.578 59.1661 123.578 59.4837 123.499C59.8433 123.41 60.1739 123.178 60.8351 122.715L69 117M53.8 130H64.2C65.8802 130 66.7202 130 67.362 129.673C67.9265 129.385 68.3854 128.926 68.673 128.362C69 127.72 69 126.88 69 125.2V118.8C69 117.12 69 116.28 68.673 115.638C68.3854 115.074 67.9265 114.615 67.362 114.327C66.7202 114 65.8802 114 64.2 114H53.8C52.1198 114 51.2798 114 50.638 114.327C50.0735 114.615 49.6146 115.074 49.327 115.638C49 116.28 49 117.12 49 118.8V125.2C49 126.88 49 127.72 49.327 128.362C49.6146 128.926 50.0735 129.385 50.638 129.673C51.2798 130 52.1198 130 53.8 130Z" stroke="black" stroke-width="2" stroke-linecap="round" stroke-linejoin="round"/>
<g filter="url(#filter2_d_6_8467)">
<rect x="27" y="162" width="325" height="57" rx="15" fill="white"/>
<rect x="27.5" y="162.5" width="324" height="56" rx="14.5" stroke="#F4F4F4"/>
</g>
<path opacity="0.3" d="M91.242 193.17C91.6293 193.17 91.97 193.119 92.264 193.016C92.5627 192.913 92.8123 192.771 93.013 192.589C93.2183 192.402 93.3723 192.181 93.475 191.924C93.5777 191.667 93.629 191.385 93.629 191.077C93.629 190.438 93.4307 189.938 93.034 189.579C92.642 189.22 92.0447 189.04 91.242 189.04H89.632V193.17H91.242ZM91.242 187.969C91.8767 187.969 92.4273 188.044 92.894 188.193C93.3653 188.338 93.755 188.545 94.063 188.816C94.371 189.087 94.5997 189.413 94.749 189.796C94.903 190.179 94.98 190.606 94.98 191.077C94.98 191.544 94.8983 191.971 94.735 192.358C94.5717 192.745 94.3313 193.079 94.014 193.359C93.7013 193.639 93.3117 193.858 92.845 194.017C92.383 194.171 91.8487 194.248 91.242 194.248H89.632V198H88.281V187.969H91.242ZM100.519 194.808C99.9455 194.827 99.4555 194.873 99.0495 194.948C98.6481 195.018 98.3191 195.111 98.0625 195.228C97.8105 195.345 97.6261 195.482 97.5095 195.641C97.3975 195.8 97.3415 195.977 97.3415 196.173C97.3415 196.36 97.3718 196.521 97.4325 196.656C97.4931 196.791 97.5748 196.903 97.6775 196.992C97.7848 197.076 97.9085 197.139 98.0485 197.181C98.1931 197.218 98.3471 197.237 98.5105 197.237C98.7298 197.237 98.9305 197.216 99.1125 197.174C99.2945 197.127 99.4648 197.062 99.6235 196.978C99.7868 196.894 99.9408 196.794 100.085 196.677C100.235 196.56 100.379 196.427 100.519 196.278V194.808ZM96.4945 191.91C96.8865 191.532 97.3088 191.25 97.7615 191.063C98.2141 190.876 98.7158 190.783 99.2665 190.783C99.6631 190.783 100.015 190.848 100.323 190.979C100.631 191.11 100.89 191.292 101.1 191.525C101.31 191.758 101.469 192.041 101.576 192.372C101.684 192.703 101.737 193.067 101.737 193.464V198H101.184C101.063 198 100.97 197.981 100.904 197.944C100.839 197.902 100.788 197.823 100.75 197.706L100.61 197.034C100.424 197.207 100.242 197.361 100.064 197.496C99.8871 197.627 99.7005 197.739 99.5045 197.832C99.3085 197.921 99.0985 197.988 98.8745 198.035C98.6551 198.086 98.4101 198.112 98.1395 198.112C97.8641 198.112 97.6051 198.075 97.3625 198C97.1198 197.921 96.9075 197.804 96.7255 197.65C96.5481 197.496 96.4058 197.302 96.2985 197.069C96.1958 196.831 96.1445 196.551 96.1445 196.229C96.1445 195.949 96.2215 195.681 96.3755 195.424C96.5295 195.163 96.7791 194.932 97.1245 194.731C97.4698 194.53 97.9201 194.367 98.4755 194.241C99.0308 194.11 99.7121 194.036 100.519 194.017V193.464C100.519 192.913 100.4 192.498 100.162 192.218C99.9245 191.933 99.5768 191.791 99.1195 191.791C98.8115 191.791 98.5525 191.831 98.3425 191.91C98.1371 191.985 97.9575 192.071 97.8035 192.169C97.6541 192.262 97.5235 192.349 97.4115 192.428C97.3041 192.503 97.1968 192.54 97.0895 192.54C97.0055 192.54 96.9331 192.519 96.8725 192.477C96.8118 192.43 96.7605 192.374 96.7185 192.309L96.4945 191.91ZM108.265 192.078C108.209 192.181 108.123 192.232 108.006 192.232C107.936 192.232 107.857 192.206 107.768 192.155C107.68 192.104 107.57 192.048 107.439 191.987C107.313 191.922 107.162 191.863 106.984 191.812C106.807 191.756 106.597 191.728 106.354 191.728C106.144 191.728 105.955 191.756 105.787 191.812C105.619 191.863 105.475 191.936 105.353 192.029C105.237 192.122 105.146 192.232 105.08 192.358C105.02 192.479 104.989 192.612 104.989 192.757C104.989 192.939 105.041 193.091 105.143 193.212C105.251 193.333 105.391 193.438 105.563 193.527C105.736 193.616 105.932 193.695 106.151 193.765C106.371 193.83 106.595 193.903 106.823 193.982C107.057 194.057 107.283 194.141 107.502 194.234C107.722 194.327 107.918 194.444 108.09 194.584C108.263 194.724 108.401 194.897 108.503 195.102C108.611 195.303 108.664 195.545 108.664 195.83C108.664 196.157 108.606 196.46 108.489 196.74C108.373 197.015 108.2 197.256 107.971 197.461C107.743 197.662 107.463 197.82 107.131 197.937C106.8 198.054 106.417 198.112 105.983 198.112C105.489 198.112 105.041 198.033 104.639 197.874C104.238 197.711 103.897 197.503 103.617 197.251L103.911 196.775C103.949 196.714 103.993 196.668 104.044 196.635C104.096 196.602 104.161 196.586 104.24 196.586C104.324 196.586 104.413 196.619 104.506 196.684C104.6 196.749 104.712 196.822 104.842 196.901C104.978 196.98 105.141 197.053 105.332 197.118C105.524 197.183 105.762 197.216 106.046 197.216C106.289 197.216 106.501 197.186 106.683 197.125C106.865 197.06 107.017 196.973 107.138 196.866C107.26 196.759 107.348 196.635 107.404 196.495C107.465 196.355 107.495 196.206 107.495 196.047C107.495 195.851 107.442 195.69 107.334 195.564C107.232 195.433 107.094 195.324 106.921 195.235C106.749 195.142 106.55 195.062 106.326 194.997C106.107 194.927 105.881 194.855 105.647 194.78C105.419 194.705 105.192 194.621 104.968 194.528C104.749 194.43 104.553 194.309 104.38 194.164C104.208 194.019 104.068 193.842 103.96 193.632C103.858 193.417 103.806 193.158 103.806 192.855C103.806 192.584 103.862 192.325 103.974 192.078C104.086 191.826 104.25 191.607 104.464 191.42C104.679 191.229 104.943 191.077 105.255 190.965C105.568 190.853 105.925 190.797 106.326 190.797C106.793 190.797 107.211 190.872 107.579 191.021C107.953 191.166 108.275 191.366 108.545 191.623L108.265 192.078ZM114.822 192.078C114.766 192.181 114.68 192.232 114.563 192.232C114.493 192.232 114.414 192.206 114.325 192.155C114.236 192.104 114.127 192.048 113.996 191.987C113.87 191.922 113.718 191.863 113.541 191.812C113.364 191.756 113.154 191.728 112.911 191.728C112.701 191.728 112.512 191.756 112.344 191.812C112.176 191.863 112.031 191.936 111.91 192.029C111.793 192.122 111.702 192.232 111.637 192.358C111.576 192.479 111.546 192.612 111.546 192.757C111.546 192.939 111.597 193.091 111.7 193.212C111.807 193.333 111.947 193.438 112.12 193.527C112.293 193.616 112.489 193.695 112.708 193.765C112.927 193.83 113.151 193.903 113.38 193.982C113.613 194.057 113.84 194.141 114.059 194.234C114.278 194.327 114.474 194.444 114.647 194.584C114.82 194.724 114.957 194.897 115.06 195.102C115.167 195.303 115.221 195.545 115.221 195.83C115.221 196.157 115.163 196.46 115.046 196.74C114.929 197.015 114.757 197.256 114.528 197.461C114.299 197.662 114.019 197.82 113.688 197.937C113.357 198.054 112.974 198.112 112.54 198.112C112.045 198.112 111.597 198.033 111.196 197.874C110.795 197.711 110.454 197.503 110.174 197.251L110.468 196.775C110.505 196.714 110.55 196.668 110.601 196.635C110.652 196.602 110.718 196.586 110.797 196.586C110.881 196.586 110.97 196.619 111.063 196.684C111.156 196.749 111.268 196.822 111.399 196.901C111.534 196.98 111.698 197.053 111.889 197.118C112.08 197.183 112.318 197.216 112.603 197.216C112.846 197.216 113.058 197.186 113.24 197.125C113.422 197.06 113.574 196.973 113.695 196.866C113.816 196.759 113.905 196.635 113.961 196.495C114.022 196.355 114.052 196.206 114.052 196.047C114.052 195.851 113.998 195.69 113.891 195.564C113.788 195.433 113.651 195.324 113.478 195.235C113.305 195.142 113.107 195.062 112.883 194.997C112.664 194.927 112.437 194.855 112.204 194.78C111.975 194.705 111.749 194.621 111.525 194.528C111.306 194.43 111.11 194.309 110.937 194.164C110.764 194.019 110.624 193.842 110.517 193.632C110.414 193.417 110.363 193.158 110.363 192.855C110.363 192.584 110.419 192.325 110.531 192.078C110.643 191.826 110.806 191.607 111.021 191.42C111.236 191.229 111.499 191.077 111.812 190.965C112.125 190.853 112.482 190.797 112.883 190.797C113.35 190.797 113.767 190.872 114.136 191.021C114.509 191.166 114.831 191.366 115.102 191.623L114.822 192.078ZM127.028 190.909L124.732 198H123.745C123.623 198 123.539 197.921 123.493 197.762L121.925 192.953C121.887 192.846 121.857 192.738 121.834 192.631C121.81 192.519 121.787 192.409 121.764 192.302C121.74 192.409 121.717 192.519 121.694 192.631C121.67 192.738 121.64 192.848 121.603 192.96L120.007 197.762C119.965 197.921 119.871 198 119.727 198H118.789L116.493 190.909H117.473C117.571 190.909 117.652 190.935 117.718 190.986C117.788 191.037 117.834 191.098 117.858 191.168L119.216 195.732C119.295 196.068 119.358 196.385 119.405 196.684C119.447 196.53 119.489 196.374 119.531 196.215C119.577 196.056 119.626 195.895 119.678 195.732L121.176 191.14C121.199 191.07 121.239 191.012 121.295 190.965C121.355 190.918 121.428 190.895 121.512 190.895H122.058C122.151 190.895 122.228 190.918 122.289 190.965C122.349 191.012 122.391 191.07 122.415 191.14L123.878 195.732C123.929 195.895 123.976 196.056 124.018 196.215C124.06 196.374 124.099 196.53 124.137 196.684C124.16 196.53 124.188 196.376 124.221 196.222C124.258 196.063 124.298 195.9 124.34 195.732L125.726 191.168C125.749 191.093 125.793 191.033 125.859 190.986C125.924 190.935 126.001 190.909 126.09 190.909H127.028ZM131.634 190.797C132.152 190.797 132.619 190.883 133.034 191.056C133.45 191.229 133.804 191.474 134.098 191.791C134.392 192.108 134.616 192.493 134.77 192.946C134.929 193.394 135.008 193.896 135.008 194.451C135.008 195.011 134.929 195.515 134.77 195.963C134.616 196.411 134.392 196.794 134.098 197.111C133.804 197.428 133.45 197.673 133.034 197.846C132.619 198.014 132.152 198.098 131.634 198.098C131.112 198.098 130.64 198.014 130.22 197.846C129.805 197.673 129.45 197.428 129.156 197.111C128.862 196.794 128.636 196.411 128.477 195.963C128.323 195.515 128.246 195.011 128.246 194.451C128.246 193.896 128.323 193.394 128.477 192.946C128.636 192.493 128.862 192.108 129.156 191.791C129.45 191.474 129.805 191.229 130.22 191.056C130.64 190.883 131.112 190.797 131.634 190.797ZM131.634 197.125C132.334 197.125 132.857 196.892 133.202 196.425C133.548 195.954 133.72 195.298 133.72 194.458C133.72 193.613 133.548 192.955 133.202 192.484C132.857 192.013 132.334 191.777 131.634 191.777C131.28 191.777 130.969 191.838 130.703 191.959C130.442 192.08 130.223 192.255 130.045 192.484C129.873 192.713 129.742 192.995 129.653 193.331C129.569 193.662 129.527 194.038 129.527 194.458C129.527 195.298 129.7 195.954 130.045 196.425C130.395 196.892 130.925 197.125 131.634 197.125ZM138.272 192.33C138.496 191.845 138.771 191.467 139.098 191.196C139.424 190.921 139.823 190.783 140.295 190.783C140.444 190.783 140.586 190.799 140.722 190.832C140.862 190.865 140.985 190.916 141.093 190.986L141.002 191.917C140.974 192.034 140.904 192.092 140.792 192.092C140.726 192.092 140.631 192.078 140.505 192.05C140.379 192.022 140.236 192.008 140.078 192.008C139.854 192.008 139.653 192.041 139.476 192.106C139.303 192.171 139.147 192.269 139.007 192.4C138.871 192.526 138.748 192.685 138.636 192.876C138.528 193.063 138.43 193.277 138.342 193.52V198H137.089V190.909H137.803C137.938 190.909 138.031 190.935 138.083 190.986C138.134 191.037 138.169 191.126 138.188 191.252L138.272 192.33ZM147.035 192.596C146.801 192.283 146.549 192.066 146.279 191.945C146.008 191.819 145.705 191.756 145.369 191.756C144.711 191.756 144.204 191.992 143.85 192.463C143.495 192.934 143.318 193.606 143.318 194.479C143.318 194.941 143.357 195.338 143.437 195.669C143.516 195.996 143.633 196.266 143.787 196.481C143.941 196.691 144.13 196.845 144.354 196.943C144.578 197.041 144.832 197.09 145.117 197.09C145.527 197.09 145.884 196.997 146.188 196.81C146.496 196.623 146.778 196.36 147.035 196.019V192.596ZM148.281 187.689V198H147.539C147.361 198 147.249 197.914 147.203 197.741L147.091 196.88C146.787 197.244 146.442 197.538 146.055 197.762C145.667 197.986 145.219 198.098 144.711 198.098C144.305 198.098 143.936 198.021 143.605 197.867C143.273 197.708 142.991 197.477 142.758 197.174C142.524 196.871 142.345 196.493 142.219 196.04C142.093 195.587 142.03 195.067 142.03 194.479C142.03 193.956 142.1 193.471 142.24 193.023C142.38 192.57 142.58 192.178 142.842 191.847C143.103 191.516 143.423 191.257 143.801 191.07C144.183 190.879 144.613 190.783 145.089 190.783C145.523 190.783 145.894 190.858 146.202 191.007C146.514 191.152 146.792 191.355 147.035 191.616V187.689H148.281Z" fill="#3B3B3B"/>
<path d="M64 188V186C64 183.239 61.7614 181 59 181C56.2386 181 54 183.239 54 186V188M59 192.5V194.5M55.8 199H62.2C63.8802 199 64.7202 199 65.362 198.673C65.9265 198.385 66.3854 197.926 66.673 197.362C67 196.72 67 195.88 67 194.2V192.8C67 191.12 67 190.28 66.673 189.638C66.3854 189.074 65.9265 188.615 65.362 188.327C64.7202 188 63.8802 188 62.2 188H55.8C54.1198 188 53.2798 188 52.638 188.327C52.0735 188.615 51.6146 189.074 51.327 189.638C51 190.28 51 191.12 51 192.8V194.2C51 195.88 51 196.72 51.327 197.362C51.6146 197.926 52.0735 198.385 52.638 198.673C53.2798 199 54.1198 199 55.8 199Z" stroke="black" stroke-width="2" stroke-linecap="round" stroke-linejoin="round"/>
<defs>
<filter id="filter0_d_6_8467" x="-9" y="0" width="425" height="157" filterUnits="userSpaceOnUse" color-interpolation-filters="sRGB">
<feFlood flood-opacity="0" result="BackgroundImageFix"/>
<feColorMatrix in="SourceAlpha" type="matrix" values="0 0 0 0 0 0 0 0 0 0 0 0 0 0 0 0 0 0 127 0" result="hardAlpha"/>
<feOffset dx="12" dy="26"/>
<feGaussianBlur stdDeviation="25"/>
<feColorMatrix type="matrix" values="0 0 0 0 0.352941 0 0 0 0 0.423529 0 0 0 0 0.917647 0 0 0 0.07 0"/>
<feBlend mode="normal" in2="BackgroundImageFix" result="effect1_dropShadow_6_8467"/>
<feBlend mode="normal" in="SourceGraphic" in2="effect1_dropShadow_6_8467" result="shape"/>
</filter>
<filter id="filter1_d_6_8467" x="-11" y="69" width="425" height="157" filterUnits="userSpaceOnUse" color-interpolation-filters="sRGB">
<feFlood flood-opacity="0" result="BackgroundImageFix"/>
<feColorMatrix in="SourceAlpha" type="matrix" values="0 0 0 0 0 0 0 0 0 0 0 0 0 0 0 0 0 0 127 0" result="hardAlpha"/>
<feOffset dx="12" dy="26"/>
<feGaussianBlur stdDeviation="25"/>
<feColorMatrix type="matrix" values="0 0 0 0 0.352941 0 0 0 0 0.423529 0 0 0 0 0.917647 0 0 0 0.07 0"/>
<feBlend mode="normal" in2="BackgroundImageFix" result="effect1_dropShadow_6_8467"/>
<feBlend mode="normal" in="SourceGraphic" in2="effect1_dropShadow_6_8467" result="shape"/>
</filter>
<filter id="filter2_d_6_8467" x="-11" y="138" width="425" height="157" filterUnits="userSpaceOnUse" color-interpolation-filters="sRGB">
<feFlood flood-opacity="0" result="BackgroundImageFix"/>
<feColorMatrix in="SourceAlpha" type="matrix" values="0 0 0 0 0 0 0 0 0 0 0 0 0 0 0 0 0 0 127 0" result="hardAlpha"/>
<feOffset dx="12" dy="26"/>
<feGaussianBlur stdDeviation="25"/>
<feColorMatrix type="matrix" values="0 0 0 0 0.352941 0 0 0 0 0.423529 0 0 0 0 0.917647 0 0 0 0.07 0"/>
<feBlend mode="normal" in2="BackgroundImageFix" result="effect1_dropShadow_6_8467"/>
<feBlend mode="normal" in="SourceGraphic" in2="effect1_dropShadow_6_8467" result="shape"/>
</filter>
</defs>
</svg>
