<svg width="197" height="157" viewBox="0 0 197 157" fill="none" xmlns="http://www.w3.org/2000/svg">
<g filter="url(#filter0_d_6_8482)">
<rect x="38" y="24" width="152" height="57" rx="15" fill="white"/>
<rect x="38.5" y="24.5" width="151" height="56" rx="14.5" stroke="#F4F4F4"/>
</g>
<path d="M115.429 55.177V59.027C114.925 59.391 114.386 59.664 113.812 59.846C113.243 60.0233 112.617 60.112 111.936 60.112C111.129 60.112 110.401 59.9883 109.752 59.741C109.103 59.489 108.548 59.139 108.086 58.691C107.629 58.2383 107.276 57.697 107.029 57.067C106.782 56.437 106.658 55.744 106.658 54.988C106.658 54.2227 106.777 53.525 107.015 52.895C107.258 52.265 107.601 51.726 108.044 51.278C108.487 50.8253 109.026 50.4753 109.661 50.228C110.296 49.9807 111.005 49.857 111.789 49.857C112.186 49.857 112.554 49.8873 112.895 49.948C113.236 50.004 113.551 50.088 113.84 50.2C114.129 50.3073 114.398 50.4403 114.645 50.599C114.892 50.753 115.123 50.928 115.338 51.124L114.953 51.74C114.892 51.8333 114.813 51.894 114.715 51.922C114.622 51.9453 114.517 51.922 114.4 51.852C114.288 51.7867 114.16 51.7073 114.015 51.614C113.87 51.5207 113.693 51.432 113.483 51.348C113.278 51.2593 113.033 51.1847 112.748 51.124C112.468 51.0633 112.134 51.033 111.747 51.033C111.182 51.033 110.671 51.1263 110.214 51.313C109.757 51.495 109.367 51.7587 109.045 52.104C108.723 52.4447 108.476 52.86 108.303 53.35C108.13 53.8353 108.044 54.3813 108.044 54.988C108.044 55.618 108.133 56.1827 108.31 56.682C108.492 57.1767 108.749 57.599 109.08 57.949C109.416 58.2943 109.822 58.558 110.298 58.74C110.774 58.922 111.308 59.013 111.901 59.013C112.368 59.013 112.781 58.9617 113.14 58.859C113.504 58.7517 113.859 58.6047 114.204 58.418V56.213H112.643C112.554 56.213 112.482 56.1873 112.426 56.136C112.375 56.0847 112.349 56.0217 112.349 55.947V55.177H115.429ZM120.621 52.797C121.139 52.797 121.605 52.8833 122.021 53.056C122.436 53.2287 122.791 53.4737 123.085 53.791C123.379 54.1083 123.603 54.4933 123.757 54.946C123.915 55.394 123.995 55.8957 123.995 56.451C123.995 57.011 123.915 57.515 123.757 57.963C123.603 58.411 123.379 58.7937 123.085 59.111C122.791 59.4283 122.436 59.6733 122.021 59.846C121.605 60.014 121.139 60.098 120.621 60.098C120.098 60.098 119.627 60.014 119.207 59.846C118.791 59.6733 118.437 59.4283 118.143 59.111C117.849 58.7937 117.622 58.411 117.464 57.963C117.31 57.515 117.233 57.011 117.233 56.451C117.233 55.8957 117.31 55.394 117.464 54.946C117.622 54.4933 117.849 54.1083 118.143 53.791C118.437 53.4737 118.791 53.2287 119.207 53.056C119.627 52.8833 120.098 52.797 120.621 52.797ZM120.621 59.125C121.321 59.125 121.843 58.8917 122.189 58.425C122.534 57.9537 122.707 57.298 122.707 56.458C122.707 55.6133 122.534 54.9553 122.189 54.484C121.843 54.0127 121.321 53.777 120.621 53.777C120.266 53.777 119.956 53.8377 119.69 53.959C119.428 54.0803 119.209 54.2553 119.032 54.484C118.859 54.7127 118.728 54.995 118.64 55.331C118.556 55.6623 118.514 56.038 118.514 56.458C118.514 57.298 118.686 57.9537 119.032 58.425C119.382 58.8917 119.911 59.125 120.621 59.125ZM129.064 52.797C129.582 52.797 130.049 52.8833 130.464 53.056C130.879 53.2287 131.234 53.4737 131.528 53.791C131.822 54.1083 132.046 54.4933 132.2 54.946C132.359 55.394 132.438 55.8957 132.438 56.451C132.438 57.011 132.359 57.515 132.2 57.963C132.046 58.411 131.822 58.7937 131.528 59.111C131.234 59.4283 130.879 59.6733 130.464 59.846C130.049 60.014 129.582 60.098 129.064 60.098C128.541 60.098 128.07 60.014 127.65 59.846C127.235 59.6733 126.88 59.4283 126.586 59.111C126.292 58.7937 126.066 58.411 125.907 57.963C125.753 57.515 125.676 57.011 125.676 56.451C125.676 55.8957 125.753 55.394 125.907 54.946C126.066 54.4933 126.292 54.1083 126.586 53.791C126.88 53.4737 127.235 53.2287 127.65 53.056C128.07 52.8833 128.541 52.797 129.064 52.797ZM129.064 59.125C129.764 59.125 130.287 58.8917 130.632 58.425C130.977 57.9537 131.15 57.298 131.15 56.458C131.15 55.6133 130.977 54.9553 130.632 54.484C130.287 54.0127 129.764 53.777 129.064 53.777C128.709 53.777 128.399 53.8377 128.133 53.959C127.872 54.0803 127.652 54.2553 127.475 54.484C127.302 54.7127 127.172 54.995 127.083 55.331C126.999 55.6623 126.957 56.038 126.957 56.458C126.957 57.298 127.13 57.9537 127.475 58.425C127.825 58.8917 128.355 59.125 129.064 59.125ZM136.948 56.535C137.2 56.535 137.422 56.5 137.613 56.43C137.805 56.36 137.966 56.262 138.096 56.136C138.227 56.01 138.325 55.8607 138.39 55.688C138.456 55.5107 138.488 55.317 138.488 55.107C138.488 54.673 138.355 54.3277 138.089 54.071C137.828 53.8143 137.448 53.686 136.948 53.686C136.444 53.686 136.059 53.8143 135.793 54.071C135.532 54.3277 135.401 54.673 135.401 55.107C135.401 55.317 135.434 55.5107 135.499 55.688C135.569 55.8607 135.67 56.01 135.8 56.136C135.931 56.262 136.092 56.36 136.283 56.43C136.475 56.5 136.696 56.535 136.948 56.535ZM139.195 60.385C139.195 60.2123 139.146 60.0723 139.048 59.965C138.95 59.8577 138.817 59.7737 138.649 59.713C138.486 59.6523 138.295 59.6103 138.075 59.587C137.856 59.559 137.623 59.538 137.375 59.524C137.133 59.51 136.885 59.496 136.633 59.482C136.381 59.468 136.139 59.4447 135.905 59.412C135.644 59.5333 135.429 59.6873 135.261 59.874C135.098 60.056 135.016 60.2707 135.016 60.518C135.016 60.6767 135.056 60.8237 135.135 60.959C135.219 61.099 135.345 61.218 135.513 61.316C135.681 61.4187 135.891 61.498 136.143 61.554C136.4 61.6147 136.701 61.645 137.046 61.645C137.382 61.645 137.683 61.6147 137.949 61.554C138.215 61.4933 138.439 61.407 138.621 61.295C138.808 61.183 138.95 61.05 139.048 60.896C139.146 60.742 139.195 60.5717 139.195 60.385ZM140.462 53.189V53.651C140.462 53.805 140.364 53.903 140.168 53.945L139.363 54.05C139.522 54.358 139.601 54.6987 139.601 55.072C139.601 55.4173 139.534 55.7323 139.398 56.017C139.268 56.297 139.086 56.5373 138.852 56.738C138.619 56.9387 138.339 57.0927 138.012 57.2C137.686 57.3073 137.331 57.361 136.948 57.361C136.617 57.361 136.304 57.3213 136.01 57.242C135.861 57.3353 135.747 57.4357 135.667 57.543C135.588 57.6457 135.548 57.7507 135.548 57.858C135.548 58.026 135.616 58.1543 135.751 58.243C135.891 58.327 136.073 58.3877 136.297 58.425C136.521 58.4623 136.776 58.4857 137.06 58.495C137.35 58.5043 137.644 58.5207 137.942 58.544C138.246 58.5627 138.54 58.5977 138.824 58.649C139.114 58.7003 139.37 58.7843 139.594 58.901C139.818 59.0177 139.998 59.1787 140.133 59.384C140.273 59.5893 140.343 59.8553 140.343 60.182C140.343 60.4853 140.266 60.7793 140.112 61.064C139.963 61.3487 139.746 61.6007 139.461 61.82C139.177 62.044 138.827 62.2213 138.411 62.352C138.001 62.4873 137.536 62.555 137.018 62.555C136.5 62.555 136.048 62.5037 135.66 62.401C135.273 62.2983 134.951 62.1607 134.694 61.988C134.438 61.8153 134.244 61.6147 134.113 61.386C133.987 61.162 133.924 60.9263 133.924 60.679C133.924 60.329 134.034 60.0327 134.253 59.79C134.473 59.5473 134.774 59.3537 135.156 59.209C134.946 59.1157 134.778 58.992 134.652 58.838C134.531 58.6793 134.47 58.467 134.47 58.201C134.47 58.0983 134.489 57.9933 134.526 57.886C134.564 57.774 134.62 57.6643 134.694 57.557C134.774 57.445 134.869 57.34 134.981 57.242C135.093 57.144 135.224 57.0577 135.373 56.983C135.023 56.787 134.75 56.528 134.554 56.206C134.358 55.8793 134.26 55.5013 134.26 55.072C134.26 54.7267 134.326 54.414 134.456 54.134C134.592 53.8493 134.778 53.609 135.016 53.413C135.254 53.2123 135.537 53.0583 135.863 52.951C136.195 52.8437 136.556 52.79 136.948 52.79C137.256 52.79 137.543 52.825 137.809 52.895C138.075 52.9603 138.318 53.0583 138.537 53.189H140.462ZM143.539 49.689V60H142.293V49.689H143.539ZM150.805 55.681C150.805 55.3917 150.763 55.128 150.679 54.89C150.6 54.6473 150.481 54.4397 150.322 54.267C150.168 54.0897 149.979 53.9543 149.755 53.861C149.531 53.763 149.277 53.714 148.992 53.714C148.395 53.714 147.921 53.889 147.571 54.239C147.226 54.5843 147.011 55.065 146.927 55.681H150.805ZM151.813 59.006C151.659 59.1927 151.475 59.356 151.26 59.496C151.046 59.6313 150.815 59.7433 150.567 59.832C150.325 59.9207 150.073 59.986 149.811 60.028C149.55 60.0747 149.291 60.098 149.034 60.098C148.544 60.098 148.092 60.0163 147.676 59.853C147.266 59.685 146.909 59.4423 146.605 59.125C146.307 58.803 146.073 58.4063 145.905 57.935C145.737 57.4637 145.653 56.9223 145.653 56.311C145.653 55.8163 145.728 55.3543 145.877 54.925C146.031 54.4957 146.251 54.1247 146.535 53.812C146.82 53.4947 147.168 53.2473 147.578 53.07C147.989 52.888 148.451 52.797 148.964 52.797C149.389 52.797 149.781 52.8693 150.14 53.014C150.504 53.154 150.817 53.3593 151.078 53.63C151.344 53.896 151.552 54.2273 151.701 54.624C151.851 55.016 151.925 55.464 151.925 55.968C151.925 56.164 151.904 56.2947 151.862 56.36C151.82 56.4253 151.741 56.458 151.624 56.458H146.885C146.899 56.906 146.96 57.2957 147.067 57.627C147.179 57.9583 147.333 58.236 147.529 58.46C147.725 58.6793 147.959 58.845 148.229 58.957C148.5 59.0643 148.803 59.118 149.139 59.118C149.452 59.118 149.72 59.083 149.944 59.013C150.173 58.9383 150.369 58.859 150.532 58.775C150.696 58.691 150.831 58.614 150.938 58.544C151.05 58.4693 151.146 58.432 151.225 58.432C151.328 58.432 151.407 58.4717 151.463 58.551L151.813 59.006Z" fill="#09051C"/>
<g clip-path="url(#clip0_6_8482)">
<path d="M93.392 52.7338C93.392 51.7095 93.309 50.9621 93.1293 50.187H81.4456V54.8099H88.3036C88.1654 55.9588 87.4188 57.6889 85.7595 58.8515L85.7363 59.0063L89.4304 61.8711L89.6864 61.8966C92.0369 59.7236 93.392 56.5262 93.392 52.7338Z" fill="#4285F4"/>
<path d="M81.4455 64.9142C84.8054 64.9142 87.626 63.8069 89.6863 61.8969L85.7594 58.8517C84.7086 59.5853 83.2982 60.0974 81.4455 60.0974C78.1547 60.0974 75.3617 57.9244 74.366 54.9209L74.2201 54.9333L70.3788 57.9092L70.3286 58.049C72.375 62.1182 76.5784 64.9142 81.4455 64.9142Z" fill="#34A853"/>
<path d="M74.3662 54.9209C74.1035 54.1458 73.9515 53.3153 73.9515 52.4572C73.9515 51.599 74.1035 50.7685 74.3524 49.9934L74.3455 49.8284L70.4561 46.8047L70.3288 46.8653C69.4854 48.5539 69.0015 50.4502 69.0015 52.4572C69.0015 54.4641 69.4854 56.3603 70.3288 58.049L74.3662 54.9209Z" fill="#FBBC05"/>
<path d="M81.4455 44.8167C83.7822 44.8167 85.3584 45.8271 86.2572 46.6715L89.7692 43.2388C87.6123 41.2319 84.8053 40 81.4455 40C76.5784 40 72.375 42.7959 70.3286 46.8652L74.3522 49.9933C75.3617 46.9898 78.1547 44.8167 81.4455 44.8167Z" fill="#EB4335"/>
</g>
<defs>
<filter id="filter0_d_6_8482" x="0" y="0" width="252" height="157" filterUnits="userSpaceOnUse" color-interpolation-filters="sRGB">
<feFlood flood-opacity="0" result="BackgroundImageFix"/>
<feColorMatrix in="SourceAlpha" type="matrix" values="0 0 0 0 0 0 0 0 0 0 0 0 0 0 0 0 0 0 127 0" result="hardAlpha"/>
<feOffset dx="12" dy="26"/>
<feGaussianBlur stdDeviation="25"/>
<feColorMatrix type="matrix" values="0 0 0 0 0.352941 0 0 0 0 0.423529 0 0 0 0 0.917647 0 0 0 0.07 0"/>
<feBlend mode="normal" in2="BackgroundImageFix" result="effect1_dropShadow_6_8482"/>
<feBlend mode="normal" in="SourceGraphic" in2="effect1_dropShadow_6_8482" result="shape"/>
</filter>
<clipPath id="clip0_6_8482">
<rect width="24.4048" height="25" fill="white" transform="translate(69 40)"/>
</clipPath>
</defs>
</svg>
