<svg width="36" height="44" viewBox="0 0 36 44" fill="none" xmlns="http://www.w3.org/2000/svg">
<path d="M5.496 32.746C5.46 32.806 5.42 32.852 5.376 32.884C5.336 32.912 5.286 32.926 5.226 32.926C5.158 32.926 5.078 32.892 4.986 32.824C4.894 32.756 4.778 32.682 4.638 32.602C4.502 32.518 4.336 32.442 4.14 32.374C3.948 32.306 3.714 32.272 3.438 32.272C3.178 32.272 2.948 32.308 2.748 32.38C2.552 32.448 2.386 32.542 2.25 32.662C2.118 32.782 2.018 32.924 1.95 33.088C1.882 33.248 1.848 33.422 1.848 33.61C1.848 33.85 1.906 34.05 2.022 34.21C2.142 34.366 2.298 34.5 2.49 34.612C2.686 34.724 2.906 34.822 3.15 34.906C3.398 34.986 3.65 35.07 3.906 35.158C4.166 35.246 4.418 35.346 4.662 35.458C4.91 35.566 5.13 35.704 5.322 35.872C5.518 36.04 5.674 36.246 5.79 36.49C5.91 36.734 5.97 37.034 5.97 37.39C5.97 37.766 5.906 38.12 5.778 38.452C5.65 38.78 5.462 39.066 5.214 39.31C4.97 39.554 4.668 39.746 4.308 39.886C3.952 40.026 3.546 40.096 3.09 40.096C2.53 40.096 2.022 39.996 1.566 39.796C1.11 39.592 0.72 39.318 0.396 38.974L0.732 38.422C0.764 38.378 0.802 38.342 0.846 38.314C0.894 38.282 0.946 38.266 1.002 38.266C1.054 38.266 1.112 38.288 1.176 38.332C1.244 38.372 1.32 38.424 1.404 38.488C1.488 38.552 1.584 38.622 1.692 38.698C1.8 38.774 1.922 38.844 2.058 38.908C2.198 38.972 2.356 39.026 2.532 39.07C2.708 39.11 2.906 39.13 3.126 39.13C3.402 39.13 3.648 39.092 3.864 39.016C4.08 38.94 4.262 38.834 4.41 38.698C4.562 38.558 4.678 38.392 4.758 38.2C4.838 38.008 4.878 37.794 4.878 37.558C4.878 37.298 4.818 37.086 4.698 36.922C4.582 36.754 4.428 36.614 4.236 36.502C4.044 36.39 3.824 36.296 3.576 36.22C3.328 36.14 3.076 36.06 2.82 35.98C2.564 35.896 2.312 35.8 2.064 35.692C1.816 35.584 1.596 35.444 1.404 35.272C1.212 35.1 1.056 34.886 0.936 34.63C0.82 34.37 0.762 34.05 0.762 33.67C0.762 33.366 0.82 33.072 0.936 32.788C1.056 32.504 1.228 32.252 1.452 32.032C1.68 31.812 1.958 31.636 2.286 31.504C2.618 31.372 2.998 31.306 3.426 31.306C3.906 31.306 4.342 31.382 4.734 31.534C5.13 31.686 5.478 31.906 5.778 32.194L5.496 32.746ZM11.3945 36.298C11.3945 36.05 11.3585 35.824 11.2865 35.62C11.2185 35.412 11.1165 35.234 10.9805 35.086C10.8485 34.934 10.6865 34.818 10.4945 34.738C10.3025 34.654 10.0845 34.612 9.84047 34.612C9.32847 34.612 8.92247 34.762 8.62247 35.062C8.32647 35.358 8.14247 35.77 8.07047 36.298H11.3945ZM12.2585 39.148C12.1265 39.308 11.9685 39.448 11.7845 39.568C11.6005 39.684 11.4025 39.78 11.1905 39.856C10.9825 39.932 10.7665 39.988 10.5425 40.024C10.3185 40.064 10.0965 40.084 9.87647 40.084C9.45647 40.084 9.06847 40.014 8.71247 39.874C8.36047 39.73 8.05447 39.522 7.79447 39.25C7.53847 38.974 7.33847 38.634 7.19447 38.23C7.05047 37.826 6.97847 37.362 6.97847 36.838C6.97847 36.414 7.04247 36.018 7.17047 35.65C7.30247 35.282 7.49047 34.964 7.73447 34.696C7.97847 34.424 8.27647 34.212 8.62847 34.06C8.98047 33.904 9.37647 33.826 9.81647 33.826C10.1805 33.826 10.5165 33.888 10.8245 34.012C11.1365 34.132 11.4045 34.308 11.6285 34.54C11.8565 34.768 12.0345 35.052 12.1625 35.392C12.2905 35.728 12.3545 36.112 12.3545 36.544C12.3545 36.712 12.3365 36.824 12.3005 36.88C12.2645 36.936 12.1965 36.964 12.0965 36.964H8.03447C8.04647 37.348 8.09847 37.682 8.19047 37.966C8.28647 38.25 8.41847 38.488 8.58647 38.68C8.75447 38.868 8.95447 39.01 9.18647 39.106C9.41847 39.198 9.67847 39.244 9.96647 39.244C10.2345 39.244 10.4645 39.214 10.6565 39.154C10.8525 39.09 11.0205 39.022 11.1605 38.95C11.3005 38.878 11.4165 38.812 11.5085 38.752C11.6045 38.688 11.6865 38.656 11.7545 38.656C11.8425 38.656 11.9105 38.69 11.9585 38.758L12.2585 39.148ZM16.9603 37.264C16.4683 37.28 16.0483 37.32 15.7003 37.384C15.3563 37.444 15.0743 37.524 14.8543 37.624C14.6383 37.724 14.4803 37.842 14.3803 37.978C14.2843 38.114 14.2363 38.266 14.2363 38.434C14.2363 38.594 14.2623 38.732 14.3143 38.848C14.3663 38.964 14.4363 39.06 14.5243 39.136C14.6163 39.208 14.7223 39.262 14.8423 39.298C14.9663 39.33 15.0983 39.346 15.2383 39.346C15.4263 39.346 15.5983 39.328 15.7543 39.292C15.9103 39.252 16.0563 39.196 16.1923 39.124C16.3323 39.052 16.4643 38.966 16.5883 38.866C16.7163 38.766 16.8403 38.652 16.9603 38.524V37.264ZM13.5103 34.78C13.8463 34.456 14.2083 34.214 14.5963 34.054C14.9843 33.894 15.4143 33.814 15.8863 33.814C16.2263 33.814 16.5283 33.87 16.7923 33.982C17.0563 34.094 17.2783 34.25 17.4583 34.45C17.6383 34.65 17.7743 34.892 17.8663 35.176C17.9583 35.46 18.0043 35.772 18.0043 36.112V40H17.5303C17.4263 40 17.3463 39.984 17.2903 39.952C17.2343 39.916 17.1903 39.848 17.1583 39.748L17.0383 39.172C16.8783 39.32 16.7223 39.452 16.5703 39.568C16.4183 39.68 16.2583 39.776 16.0903 39.856C15.9223 39.932 15.7423 39.99 15.5503 40.03C15.3623 40.074 15.1523 40.096 14.9203 40.096C14.6843 40.096 14.4623 40.064 14.2543 40C14.0463 39.932 13.8643 39.832 13.7083 39.7C13.5563 39.568 13.4343 39.402 13.3423 39.202C13.2543 38.998 13.2103 38.758 13.2103 38.482C13.2103 38.242 13.2763 38.012 13.4083 37.792C13.5403 37.568 13.7543 37.37 14.0503 37.198C14.3463 37.026 14.7323 36.886 15.2083 36.778C15.6843 36.666 16.2683 36.602 16.9603 36.586V36.112C16.9603 35.64 16.8583 35.284 16.6543 35.044C16.4503 34.8 16.1523 34.678 15.7603 34.678C15.4963 34.678 15.2743 34.712 15.0943 34.78C14.9183 34.844 14.7643 34.918 14.6323 35.002C14.5043 35.082 14.3923 35.156 14.2963 35.224C14.2043 35.288 14.1123 35.32 14.0203 35.32C13.9483 35.32 13.8863 35.302 13.8343 35.266C13.7823 35.226 13.7383 35.178 13.7023 35.122L13.5103 34.78ZM20.6452 35.14C20.8372 34.724 21.0732 34.4 21.3532 34.168C21.6332 33.932 21.9752 33.814 22.3792 33.814C22.5072 33.814 22.6292 33.828 22.7452 33.856C22.8652 33.884 22.9712 33.928 23.0632 33.988L22.9852 34.786C22.9612 34.886 22.9012 34.936 22.8052 34.936C22.7492 34.936 22.6672 34.924 22.5592 34.9C22.4512 34.876 22.3292 34.864 22.1932 34.864C22.0012 34.864 21.8292 34.892 21.6772 34.948C21.5292 35.004 21.3952 35.088 21.2752 35.2C21.1592 35.308 21.0532 35.444 20.9572 35.608C20.8652 35.768 20.7812 35.952 20.7052 36.16V40H19.6312V33.922H20.2432C20.3592 33.922 20.4392 33.944 20.4832 33.988C20.5272 34.032 20.5572 34.108 20.5732 34.216L20.6452 35.14ZM27.9862 35.002C27.9542 35.046 27.9222 35.08 27.8902 35.104C27.8582 35.128 27.8142 35.14 27.7582 35.14C27.6982 35.14 27.6322 35.116 27.5602 35.068C27.4882 35.016 27.3982 34.96 27.2902 34.9C27.1862 34.84 27.0562 34.786 26.9002 34.738C26.7482 34.686 26.5602 34.66 26.3362 34.66C26.0362 34.66 25.7722 34.714 25.5442 34.822C25.3162 34.926 25.1242 35.078 24.9682 35.278C24.8162 35.478 24.7002 35.72 24.6202 36.004C24.5442 36.288 24.5062 36.606 24.5062 36.958C24.5062 37.326 24.5482 37.654 24.6322 37.942C24.7162 38.226 24.8342 38.466 24.9862 38.662C25.1422 38.854 25.3282 39.002 25.5442 39.106C25.7642 39.206 26.0102 39.256 26.2822 39.256C26.5422 39.256 26.7562 39.226 26.9242 39.166C27.0922 39.102 27.2302 39.032 27.3382 38.956C27.4502 38.88 27.5422 38.812 27.6142 38.752C27.6902 38.688 27.7642 38.656 27.8362 38.656C27.9242 38.656 27.9922 38.69 28.0402 38.758L28.3402 39.148C28.2082 39.312 28.0582 39.452 27.8902 39.568C27.7222 39.684 27.5402 39.782 27.3442 39.862C27.1522 39.938 26.9502 39.994 26.7382 40.03C26.5262 40.066 26.3102 40.084 26.0902 40.084C25.7102 40.084 25.3562 40.014 25.0282 39.874C24.7042 39.734 24.4222 39.532 24.1822 39.268C23.9422 39 23.7542 38.672 23.6182 38.284C23.4822 37.896 23.4142 37.454 23.4142 36.958C23.4142 36.506 23.4762 36.088 23.6002 35.704C23.7282 35.32 23.9122 34.99 24.1522 34.714C24.3962 34.434 24.6942 34.216 25.0462 34.06C25.4022 33.904 25.8102 33.826 26.2702 33.826C26.6982 33.826 27.0742 33.896 27.3982 34.036C27.7262 34.172 28.0162 34.366 28.2682 34.618L27.9862 35.002ZM30.5606 34.732C30.8206 34.456 31.1086 34.236 31.4246 34.072C31.7406 33.908 32.1046 33.826 32.5166 33.826C32.8486 33.826 33.1406 33.882 33.3926 33.994C33.6486 34.102 33.8606 34.258 34.0286 34.462C34.2006 34.662 34.3306 34.904 34.4186 35.188C34.5066 35.472 34.5506 35.786 34.5506 36.13V40H33.4766V36.13C33.4766 35.67 33.3706 35.314 33.1586 35.062C32.9506 34.806 32.6326 34.678 32.2046 34.678C31.8886 34.678 31.5926 34.754 31.3166 34.906C31.0446 35.058 30.7926 35.264 30.5606 35.524V40H29.4866V31.162H30.5606V34.732Z" fill="#09051C"/>
<path d="M26 21L21.65 16.65M16 6C18.7614 6 21 8.23858 21 11M24 11C24 15.4183 20.4183 19 16 19C11.5817 19 8 15.4183 8 11C8 6.58172 11.5817 3 16 3C20.4183 3 24 6.58172 24 11Z" stroke="black" stroke-width="2" stroke-linecap="round" stroke-linejoin="round"/>
</svg>
