<svg width="197" height="25" viewBox="0 0 197 25" fill="none" xmlns="http://www.w3.org/2000/svg">
<path d="M2 3H3.30616C3.55218 3 3.67519 3 3.77418 3.04524C3.86142 3.08511 3.93535 3.14922 3.98715 3.22995C4.04593 3.32154 4.06333 3.44332 4.09812 3.68686L4.57143 7M4.57143 7L5.62332 14.7314C5.75681 15.7125 5.82355 16.2031 6.0581 16.5723C6.26478 16.8977 6.56108 17.1564 6.91135 17.3174C7.30886 17.5 7.80394 17.5 8.79411 17.5H17.352C18.2945 17.5 18.7658 17.5 19.151 17.3304C19.4905 17.1809 19.7818 16.9398 19.9923 16.6342C20.2309 16.2876 20.3191 15.8247 20.4955 14.8988L21.8191 7.94969C21.8812 7.62381 21.9122 7.46087 21.8672 7.3335C21.8278 7.22177 21.7499 7.12768 21.6475 7.06802C21.5308 7 21.365 7 21.0332 7H4.57143ZM10 22C10 22.5523 9.55228 23 9 23C8.44772 23 8 22.5523 8 22C8 21.4477 8.44772 21 9 21C9.55228 21 10 21.4477 10 22ZM18 22C18 22.5523 17.5523 23 17 23C16.4477 23 16 22.5523 16 22C16 21.4477 16.4477 21 17 21C17.5523 21 18 21.4477 18 22Z" stroke="black" stroke-width="2" stroke-linecap="round" stroke-linejoin="round"/>
<path d="M193 21C193 19.6044 193 18.9067 192.828 18.3389C192.44 17.0605 191.44 16.06 190.161 15.6722C189.593 15.5 188.896 15.5 187.5 15.5H182.5C181.104 15.5 180.407 15.5 179.839 15.6722C178.56 16.06 177.56 17.0605 177.172 18.3389C177 18.9067 177 19.6044 177 21M189.5 7.5C189.5 9.98528 187.485 12 185 12C182.515 12 180.5 9.98528 180.5 7.5C180.5 5.01472 182.515 3 185 3C187.485 3 189.5 5.01472 189.5 7.5Z" stroke="black" stroke-width="2" stroke-linecap="round" stroke-linejoin="round"/>
</svg>
