<svg width="36" height="44" viewBox="0 0 36 44" fill="none" xmlns="http://www.w3.org/2000/svg">
<path d="M8.064 31.402V40H6.9V36.088H2.262V40H1.098V31.402H2.262V35.236H6.9V31.402H8.064ZM12.3846 33.826C12.8286 33.826 13.2286 33.9 13.5846 34.048C13.9406 34.196 14.2446 34.406 14.4966 34.678C14.7486 34.95 14.9406 35.28 15.0726 35.668C15.2086 36.052 15.2766 36.482 15.2766 36.958C15.2766 37.438 15.2086 37.87 15.0726 38.254C14.9406 38.638 14.7486 38.966 14.4966 39.238C14.2446 39.51 13.9406 39.72 13.5846 39.868C13.2286 40.012 12.8286 40.084 12.3846 40.084C11.9366 40.084 11.5326 40.012 11.1726 39.868C10.8166 39.72 10.5126 39.51 10.2606 39.238C10.0086 38.966 9.81456 38.638 9.67856 38.254C9.54656 37.87 9.48056 37.438 9.48056 36.958C9.48056 36.482 9.54656 36.052 9.67856 35.668C9.81456 35.28 10.0086 34.95 10.2606 34.678C10.5126 34.406 10.8166 34.196 11.1726 34.048C11.5326 33.9 11.9366 33.826 12.3846 33.826ZM12.3846 39.25C12.9846 39.25 13.4326 39.05 13.7286 38.65C14.0246 38.246 14.1726 37.684 14.1726 36.964C14.1726 36.24 14.0246 35.676 13.7286 35.272C13.4326 34.868 12.9846 34.666 12.3846 34.666C12.0806 34.666 11.8146 34.718 11.5866 34.822C11.3626 34.926 11.1746 35.076 11.0226 35.272C10.8746 35.468 10.7626 35.71 10.6866 35.998C10.6146 36.282 10.5786 36.604 10.5786 36.964C10.5786 37.684 10.7266 38.246 11.0226 38.65C11.3226 39.05 11.7766 39.25 12.3846 39.25ZM16.6312 40V33.922H17.2732C17.4252 33.922 17.5192 33.996 17.5552 34.144L17.6332 34.768C17.8572 34.492 18.1092 34.266 18.3892 34.09C18.6692 33.914 18.9932 33.826 19.3612 33.826C19.7692 33.826 20.0992 33.94 20.3512 34.168C20.6072 34.396 20.7912 34.704 20.9032 35.092C20.9912 34.872 21.1032 34.682 21.2392 34.522C21.3792 34.362 21.5352 34.23 21.7072 34.126C21.8792 34.022 22.0612 33.946 22.2532 33.898C22.4492 33.85 22.6472 33.826 22.8472 33.826C23.1672 33.826 23.4512 33.878 23.6992 33.982C23.9512 34.082 24.1632 34.23 24.3352 34.426C24.5112 34.622 24.6452 34.864 24.7372 35.152C24.8292 35.436 24.8752 35.762 24.8752 36.13V40H23.8012V36.13C23.8012 35.654 23.6972 35.294 23.4892 35.05C23.2812 34.802 22.9812 34.678 22.5892 34.678C22.4132 34.678 22.2452 34.71 22.0852 34.774C21.9292 34.834 21.7912 34.924 21.6712 35.044C21.5512 35.164 21.4552 35.316 21.3832 35.5C21.3152 35.68 21.2812 35.89 21.2812 36.13V40H20.2072V36.13C20.2072 35.642 20.1092 35.278 19.9132 35.038C19.7172 34.798 19.4312 34.678 19.0552 34.678C18.7912 34.678 18.5472 34.75 18.3232 34.894C18.0992 35.034 17.8932 35.226 17.7052 35.47V40H16.6312ZM30.5663 36.298C30.5663 36.05 30.5303 35.824 30.4583 35.62C30.3903 35.412 30.2883 35.234 30.1523 35.086C30.0203 34.934 29.8583 34.818 29.6663 34.738C29.4743 34.654 29.2563 34.612 29.0123 34.612C28.5003 34.612 28.0943 34.762 27.7943 35.062C27.4983 35.358 27.3143 35.77 27.2423 36.298H30.5663ZM31.4303 39.148C31.2983 39.308 31.1403 39.448 30.9563 39.568C30.7723 39.684 30.5743 39.78 30.3623 39.856C30.1543 39.932 29.9383 39.988 29.7143 40.024C29.4903 40.064 29.2683 40.084 29.0483 40.084C28.6283 40.084 28.2403 40.014 27.8843 39.874C27.5323 39.73 27.2263 39.522 26.9663 39.25C26.7103 38.974 26.5103 38.634 26.3663 38.23C26.2223 37.826 26.1503 37.362 26.1503 36.838C26.1503 36.414 26.2143 36.018 26.3423 35.65C26.4743 35.282 26.6623 34.964 26.9063 34.696C27.1503 34.424 27.4483 34.212 27.8003 34.06C28.1523 33.904 28.5483 33.826 28.9883 33.826C29.3523 33.826 29.6883 33.888 29.9963 34.012C30.3083 34.132 30.5763 34.308 30.8003 34.54C31.0283 34.768 31.2063 35.052 31.3343 35.392C31.4623 35.728 31.5263 36.112 31.5263 36.544C31.5263 36.712 31.5083 36.824 31.4723 36.88C31.4363 36.936 31.3683 36.964 31.2683 36.964H27.2063C27.2183 37.348 27.2703 37.682 27.3623 37.966C27.4583 38.25 27.5903 38.488 27.7583 38.68C27.9263 38.868 28.1263 39.01 28.3583 39.106C28.5903 39.198 28.8503 39.244 29.1383 39.244C29.4063 39.244 29.6363 39.214 29.8283 39.154C30.0243 39.09 30.1923 39.022 30.3323 38.95C30.4723 38.878 30.5883 38.812 30.6803 38.752C30.7763 38.688 30.8583 38.656 30.9263 38.656C31.0143 38.656 31.0823 38.69 31.1303 38.758L31.4303 39.148Z" fill="#09051C"/>
<path d="M18 16C19.6569 16 21 14.6568 21 13C21 11.3431 19.6569 9.99998 18 9.99998C16.3431 9.99998 15 11.3431 15 13C15 14.6568 16.3431 16 18 16Z" stroke="black" stroke-width="2" stroke-linecap="round" stroke-linejoin="round"/>
<path d="M9 10.5651C9 9.9907 9 9.70352 9.07403 9.43905C9.1396 9.20478 9.24737 8.98444 9.39203 8.78886C9.55534 8.56806 9.78202 8.39175 10.2354 8.03912L17.0177 2.764C17.369 2.49075 17.5447 2.35412 17.7387 2.3016C17.9098 2.25526 18.0902 2.25526 18.2613 2.3016C18.4553 2.35412 18.631 2.49075 18.9823 2.764L25.7646 8.03913C26.218 8.39175 26.4447 8.56806 26.608 8.78886C26.7526 8.98444 26.8604 9.20478 26.926 9.43905C27 9.70352 27 9.9907 27 10.5651V17.8C27 18.9201 27 19.4801 26.782 19.908C26.5903 20.2843 26.2843 20.5903 25.908 20.782C25.4802 21 24.9201 21 23.8 21H12.2C11.0799 21 10.5198 21 10.092 20.782C9.71569 20.5903 9.40973 20.2843 9.21799 19.908C9 19.4801 9 18.9201 9 17.8V10.5651Z" stroke="black" stroke-width="2" stroke-linecap="round" stroke-linejoin="round"/>
</svg>
