<svg width="38" height="45" viewBox="0 0 38 45" fill="none" xmlns="http://www.w3.org/2000/svg">
<path d="M2 2H3.30616C3.55218 2 3.67519 2 3.77418 2.04524C3.86142 2.08511 3.93535 2.14922 3.98715 2.22995C4.04593 2.32154 4.06333 2.44332 4.09812 2.68686L4.57143 6M4.57143 6L5.62332 13.7314C5.75681 14.7125 5.82355 15.2031 6.0581 15.5723C6.26478 15.8977 6.56108 16.1564 6.91135 16.3174C7.30886 16.5 7.80394 16.5 8.79411 16.5H17.352C18.2945 16.5 18.7658 16.5 19.151 16.3304C19.4905 16.1809 19.7818 15.9398 19.9923 15.6342C20.2309 15.2876 20.3191 14.8247 20.4955 13.8988L21.8191 6.94969C21.8812 6.62381 21.9122 6.46087 21.8672 6.3335C21.8278 6.22177 21.7499 6.12768 21.6475 6.06802C21.5308 6 21.365 6 21.0332 6H4.57143ZM10 21C10 21.5523 9.55228 22 9 22C8.44772 22 8 21.5523 8 21C8 20.4477 8.44772 20 9 20C9.55228 20 10 20.4477 10 21ZM18 21C18 21.5523 17.5523 22 17 22C16.4477 22 16 21.5523 16 21C16 20.4477 16.4477 20 17 20C17.5523 20 18 20.4477 18 21Z" stroke="black" stroke-width="2" stroke-linecap="round" stroke-linejoin="round"/>
<path d="M9.134 39.224C9.198 39.224 9.254 39.25 9.302 39.302L9.764 39.8C9.412 40.208 8.984 40.526 8.48 40.754C7.98 40.982 7.374 41.096 6.662 41.096C6.046 41.096 5.486 40.99 4.982 40.778C4.478 40.562 4.048 40.262 3.692 39.878C3.336 39.49 3.06 39.026 2.864 38.486C2.668 37.946 2.57 37.352 2.57 36.704C2.57 36.056 2.672 35.462 2.876 34.922C3.08 34.382 3.366 33.918 3.734 33.53C4.106 33.142 4.55 32.842 5.066 32.63C5.582 32.414 6.152 32.306 6.776 32.306C7.388 32.306 7.928 32.404 8.396 32.6C8.864 32.796 9.276 33.062 9.632 33.398L9.248 33.932C9.224 33.972 9.192 34.006 9.152 34.034C9.116 34.058 9.066 34.07 9.002 34.07C8.93 34.07 8.842 34.032 8.738 33.956C8.634 33.876 8.498 33.788 8.33 33.692C8.162 33.596 7.952 33.51 7.7 33.434C7.448 33.354 7.138 33.314 6.77 33.314C6.326 33.314 5.92 33.392 5.552 33.548C5.184 33.7 4.866 33.922 4.598 34.214C4.334 34.506 4.128 34.862 3.98 35.282C3.832 35.702 3.758 36.176 3.758 36.704C3.758 37.24 3.834 37.718 3.986 38.138C4.142 38.558 4.352 38.914 4.616 39.206C4.884 39.494 5.198 39.714 5.558 39.866C5.922 40.018 6.314 40.094 6.734 40.094C6.99 40.094 7.22 40.08 7.424 40.052C7.632 40.02 7.822 39.972 7.994 39.908C8.17 39.844 8.332 39.764 8.48 39.668C8.632 39.568 8.782 39.45 8.93 39.314C8.998 39.254 9.066 39.224 9.134 39.224ZM14.1556 38.264C13.6636 38.28 13.2436 38.32 12.8956 38.384C12.5516 38.444 12.2696 38.524 12.0496 38.624C11.8336 38.724 11.6756 38.842 11.5756 38.978C11.4796 39.114 11.4316 39.266 11.4316 39.434C11.4316 39.594 11.4576 39.732 11.5096 39.848C11.5616 39.964 11.6316 40.06 11.7196 40.136C11.8116 40.208 11.9176 40.262 12.0376 40.298C12.1616 40.33 12.2936 40.346 12.4336 40.346C12.6216 40.346 12.7936 40.328 12.9496 40.292C13.1056 40.252 13.2516 40.196 13.3876 40.124C13.5276 40.052 13.6596 39.966 13.7836 39.866C13.9116 39.766 14.0356 39.652 14.1556 39.524V38.264ZM10.7056 35.78C11.0416 35.456 11.4036 35.214 11.7916 35.054C12.1796 34.894 12.6096 34.814 13.0816 34.814C13.4216 34.814 13.7236 34.87 13.9876 34.982C14.2516 35.094 14.4736 35.25 14.6536 35.45C14.8336 35.65 14.9696 35.892 15.0616 36.176C15.1536 36.46 15.1996 36.772 15.1996 37.112V41H14.7256C14.6216 41 14.5416 40.984 14.4856 40.952C14.4296 40.916 14.3856 40.848 14.3536 40.748L14.2336 40.172C14.0736 40.32 13.9176 40.452 13.7656 40.568C13.6136 40.68 13.4536 40.776 13.2856 40.856C13.1176 40.932 12.9376 40.99 12.7456 41.03C12.5576 41.074 12.3476 41.096 12.1156 41.096C11.8796 41.096 11.6576 41.064 11.4496 41C11.2416 40.932 11.0596 40.832 10.9036 40.7C10.7516 40.568 10.6296 40.402 10.5376 40.202C10.4496 39.998 10.4056 39.758 10.4056 39.482C10.4056 39.242 10.4716 39.012 10.6036 38.792C10.7356 38.568 10.9496 38.37 11.2456 38.198C11.5416 38.026 11.9276 37.886 12.4036 37.778C12.8796 37.666 13.4636 37.602 14.1556 37.586V37.112C14.1556 36.64 14.0536 36.284 13.8496 36.044C13.6456 35.8 13.3476 35.678 12.9556 35.678C12.6916 35.678 12.4696 35.712 12.2896 35.78C12.1136 35.844 11.9596 35.918 11.8276 36.002C11.6996 36.082 11.5876 36.156 11.4916 36.224C11.3996 36.288 11.3076 36.32 11.2156 36.32C11.1436 36.32 11.0816 36.302 11.0296 36.266C10.9776 36.226 10.9336 36.178 10.8976 36.122L10.7056 35.78ZM17.8405 36.14C18.0325 35.724 18.2685 35.4 18.5485 35.168C18.8285 34.932 19.1705 34.814 19.5745 34.814C19.7025 34.814 19.8245 34.828 19.9405 34.856C20.0605 34.884 20.1665 34.928 20.2585 34.988L20.1805 35.786C20.1565 35.886 20.0965 35.936 20.0005 35.936C19.9445 35.936 19.8625 35.924 19.7545 35.9C19.6465 35.876 19.5245 35.864 19.3885 35.864C19.1965 35.864 19.0245 35.892 18.8725 35.948C18.7245 36.004 18.5905 36.088 18.4705 36.2C18.3545 36.308 18.2485 36.444 18.1525 36.608C18.0605 36.768 17.9765 36.952 17.9005 37.16V41H16.8265V34.922H17.4385C17.5545 34.922 17.6345 34.944 17.6785 34.988C17.7225 35.032 17.7525 35.108 17.7685 35.216L17.8405 36.14ZM23.0636 41.096C22.5836 41.096 22.2136 40.962 21.9536 40.694C21.6976 40.426 21.5696 40.04 21.5696 39.536V35.816H20.8376C20.7736 35.816 20.7196 35.798 20.6756 35.762C20.6316 35.722 20.6096 35.662 20.6096 35.582V35.156L21.6056 35.03L21.8516 33.152C21.8636 33.092 21.8896 33.044 21.9296 33.008C21.9736 32.968 22.0296 32.948 22.0976 32.948H22.6376V35.042H24.3956V35.816H22.6376V39.464C22.6376 39.72 22.6996 39.91 22.8236 40.034C22.9476 40.158 23.1076 40.22 23.3036 40.22C23.4156 40.22 23.5116 40.206 23.5916 40.178C23.6756 40.146 23.7476 40.112 23.8076 40.076C23.8676 40.04 23.9176 40.008 23.9576 39.98C24.0016 39.948 24.0396 39.932 24.0716 39.932C24.1276 39.932 24.1776 39.966 24.2216 40.034L24.5336 40.544C24.3496 40.716 24.1276 40.852 23.8676 40.952C23.6076 41.048 23.3396 41.096 23.0636 41.096Z" fill="#09051C"/>
</svg>
